<svg id="Capa_1" data-name="Capa 1" xmlns="http://www.w3.org/2000/svg" viewBox="0 0 424.8 328.8"><defs><style>.cls-1{fill:#436064;fill-rule:evenodd;}</style></defs><title>Icono _2</title><path class="cls-1" d="M228.35,201.78h1.14c15.31-1.17,26.11-7.41,34.6-16.45a52,52,0,0,0,14.73-36.77c0-16.44-6.23-28.37-14.73-36.86-8.49-9.58-19.29-15.27-34.6-17H220.4c-15.27,2.3-26.61,8-35.14,17h-1.13c-28.33,4.56-44.77,20.42-49.34,49.28v9.08q6.86,42.44,49.34,49.25h9.08c15.31-2.26,26.06-8.5,34.6-17ZM195.47,111.7l.58-.54a44.9,44.9,0,0,1,24.35-9c17-1.72,29.51,4.52,37.46,13,7.95,7.91,15.31,19.79,14.18,36.78a47.5,47.5,0,0,1-28.91,39.66,48.12,48.12,0,0,1-8.54,2.8,57.09,57.09,0,0,0,7.95-28.82c0-16.45-6.23-28.92-14.73-37.41a56.79,56.79,0,0,0-32.34-16.44Zm9.66,63.43a9.44,9.44,0,0,1-.58,5.69,8.42,8.42,0,0,1-3.39,4.51,21,21,0,0,1-5.11,3.44c-1.71.54-4,1.08-6.82,1.67l-.54,8.49v.59h0c-.59.55-.59.55-1.13.55h-3.43l-.54-.55v-.59l.54-8.49a9.47,9.47,0,0,1-4-.59,3.59,3.59,0,0,1-2.26-.54c-1.13,0-1.71-.54-2.26-.54-.54-.63-1.13-.63-1.13-1.18-.58,0-.58-.54-1.13-1.12v-3.93a.57.57,0,0,1,.55-.64h.58c.59-.54.59,0,1.13,0,1.13.64,1.72,1.18,2.85,1.72,1.13,0,2.26.59,4,1.17h5.1c4,0,6.78-1.17,8.49-2.89a6.71,6.71,0,0,0,2.81-5.6c-.55-1.71-.55-2.85-1.68-4a5.46,5.46,0,0,0-2.84-2.26,5.91,5.91,0,0,0-4-1.71c-1.67-.55-2.8-1.13-4.52-1.72s-3.38-.54-4.51-1.67a8.89,8.89,0,0,1-4-2.31,7.51,7.51,0,0,1-2.85-3.33,9.77,9.77,0,0,1-1.71-5.7,15,15,0,0,1,.58-5.06c.55-1.72,1.72-2.89,2.26-4a33.65,33.65,0,0,1,4.52-3.43,21.47,21.47,0,0,1,6.23-1.08l.59-7.95v-.55h.59a.56.56,0,0,1,.54-.63h3.43c.55,0,.55.63.55.63v.55l-.55,7.95h2.81c.58,0,1.71.54,2.26.54a3.56,3.56,0,0,0,2.26.54,2.06,2.06,0,0,1,1.17.59c0,.59,0,.59.54.59V144c.59.58.59.58.59,1.12v1.18c0,.54,0,.54-.59.54v.55a.54.54,0,0,1-.54.58,2.07,2.07,0,0,0-1.17-.58c-.55-.55-1.68-.55-2.81-.55a4.55,4.55,0,0,0-2.84-1.17,12.79,12.79,0,0,0-4.52-.55,6.14,6.14,0,0,0-4,1.18,4.75,4.75,0,0,0-3.38,1.09c-.59.58-1.18,1.71-1.72,2.25v2.85c0,1.72,0,2.85,1.13,3.93.59,1.18,1.72,1.72,2.85,2.9a27.2,27.2,0,0,1,4,1.66,17.1,17.1,0,0,1,5.06,1.13,41.33,41.33,0,0,0,4.56,1.72,9,9,0,0,1,4,2.26,15.84,15.84,0,0,1,2.85,3.39c1.12,1.67,1.12,3.39,1.12,5.65Zm30.05-6.24c1.13-17-5.69-28.82-13.6-36.77s-20.42-14.73-37.45-13.6a45.43,45.43,0,0,0-24.35,10.21A42.92,42.92,0,0,0,145,148c-4,8.45-4,20.38-1.71,29.42,4.56,17,17,28.91,34.6,33.42a50.06,50.06,0,0,0,28.92-2.25c14.77-6.24,27.24-19.79,28.37-39.67Z"/></svg>