<svg id="Capa_1" data-name="Capa 1" xmlns="http://www.w3.org/2000/svg" viewBox="0 0 1172.57 665.14"><defs><style>.cls-1{fill:#9da5ac;}</style></defs><title>Imagotipo gris</title><path class="cls-1" d="M243.81,357.69q.42,21.78.83,43.55h9q0-19.19.07-38.36a29.86,29.86,0,0,1-4.37-1.75A30.91,30.91,0,0,1,243.81,357.69Z"/><path class="cls-1" d="M288.9,356.42a43.19,43.19,0,0,1-13.06,2.32,37.15,37.15,0,0,1-16.57-3,35.3,35.3,0,0,1-12-8.7,37,37,0,0,1-7.24-12.57,45.23,45.23,0,0,1-2.45-14.86,42.26,42.26,0,0,1,2.57-15.05,35,35,0,0,1,7.24-11.79A33.14,33.14,0,0,1,258.49,285a34.71,34.71,0,0,1,13.95-2.78,34.07,34.07,0,0,1,9.39,1.21,31.93,31.93,0,0,1,7.54,3.14,20.87,20.87,0,0,1,5.39,4.41,15.28,15.28,0,0,1,2.93,5h8.86a34,34,0,0,0-4.61-7.62,26.6,26.6,0,0,0-7-6,36.67,36.67,0,0,0-9.82-4,51.23,51.23,0,0,0-12.8-1.45,56.82,56.82,0,0,0-19,3,42.07,42.07,0,0,0-14.66,8.65,38.43,38.43,0,0,0-9.45,13.53,44.91,44.91,0,0,0-3.35,17.71,51.66,51.66,0,0,0,2.69,16.49,40,40,0,0,0,8.32,14.26,41,41,0,0,0,14.36,10c8.07,3.52,15,3.7,20.83,3.81a70,70,0,0,0,16.75-1.74C288.85,360.61,288.88,358.52,288.9,356.42Z"/><path class="cls-1" d="M304.75,347.4c-.47.53-1,1.08-1.57,1.62a27.64,27.64,0,0,1-3.58,2.9l.12,6.53a42.56,42.56,0,0,0,8.62-7.78Z"/><path class="cls-1" d="M291.81,313.94Q285,307,271.61,307t-20.13,6.9c-5.65,5.69-6.26,13.92-6.84,20.07a48.06,48.06,0,0,0-.13,7.24,25.14,25.14,0,0,0,9.15,9.45c0-3.42-.07-8.22-.07-14.14a41.58,41.58,0,0,1,.83-9,18.48,18.48,0,0,1,2.88-7,13.22,13.22,0,0,1,5.56-4.54,21.21,21.21,0,0,1,8.75-1.6,20.75,20.75,0,0,1,8.69,1.6,13.73,13.73,0,0,1,5.56,4.54,17.93,17.93,0,0,1,2.94,7,44.36,44.36,0,0,1,.83,9V358a61.59,61.59,0,0,1,.6,10.07,61.59,61.59,0,0,0-.6-10.07v43.26h8.95V333.88Q298.58,320.85,291.81,313.94Z"/><path class="cls-1" d="M422.55,329.15a25.67,25.67,0,0,1-3.33,3.13,26.92,26.92,0,0,1-5.47,3.35,40.43,40.43,0,0,1-7.7,2.64,43,43,0,0,1-10,1.07,37.51,37.51,0,0,1-15.23-2.82,29.13,29.13,0,0,1-16.6-18,38.62,38.62,0,0,1-2-12.2,33.67,33.67,0,0,1,2.45-13.09,28.61,28.61,0,0,1,6.92-10,30.64,30.64,0,0,1,10.73-6.39,41,41,0,0,1,13.88-2.24,36.93,36.93,0,0,1,9.36,1.08,25.9,25.9,0,0,1,7.18,3,19.53,19.53,0,0,1,5.13,4.46,25.31,25.31,0,0,1,3.37,5.63h-6.48a11.33,11.33,0,0,0-2.15-3.7,15.23,15.23,0,0,0-3.94-3.27,23.66,23.66,0,0,0-5.51-2.32,26.65,26.65,0,0,0-17.08,1.16,24.38,24.38,0,0,0-8.1,5.72,25.94,25.94,0,0,0-5.29,8.72,31.46,31.46,0,0,0-1.89,11.12,33.83,33.83,0,0,0,1.8,11,27.3,27.3,0,0,0,5.3,9.29,25.43,25.43,0,0,0,8.75,6.43,28.63,28.63,0,0,0,12.08,2.42,29.53,29.53,0,0,0,21.19-8.58Z"/><path class="cls-1" d="M467.29,316a25.39,25.39,0,0,1-1.57,8.9,22.78,22.78,0,0,1-4.51,7.46,21.4,21.4,0,0,1-7.1,5.09,22.42,22.42,0,0,1-9.32,1.88,22.81,22.81,0,0,1-9.5-1.92,21.67,21.67,0,0,1-7.18-5.14,23.23,23.23,0,0,1-4.55-7.46,25,25,0,0,1,0-17.7,23.12,23.12,0,0,1,4.55-7.46,21.53,21.53,0,0,1,7.18-5.14,22.81,22.81,0,0,1,9.5-1.92,21.75,21.75,0,0,1,16.42,7.06,22.68,22.68,0,0,1,4.51,7.46A25.37,25.37,0,0,1,467.29,316ZM459,316a32.25,32.25,0,0,0-1.31-10.14,15.72,15.72,0,0,0-3.41-6,10.91,10.91,0,0,0-4.65-2.91,16.18,16.18,0,0,0-9.8,0,11.15,11.15,0,0,0-4.69,2.91,15.8,15.8,0,0,0-3.5,6,38.18,38.18,0,0,0,0,20.2,15.8,15.8,0,0,0,3.5,6A11.15,11.15,0,0,0,439.8,335a16.38,16.38,0,0,0,9.8,0,10.91,10.91,0,0,0,4.65-2.91,15.72,15.72,0,0,0,3.41-6A32,32,0,0,0,459,316Z"/><path class="cls-1" d="M471.93,338.27V293.58h7.44v7.24h.35a12.48,12.48,0,0,1,2.67-4.2,13,13,0,0,1,3.46-2.5,13.68,13.68,0,0,1,3.68-1.21,19.1,19.1,0,0,1,3.15-.31,13.73,13.73,0,0,1,4.95.8,12.69,12.69,0,0,1,3.55,2.06,12.45,12.45,0,0,1,2.45,2.72,14.87,14.87,0,0,1,1.49,2.91h.61a14.58,14.58,0,0,1,3.11-4.47,13.76,13.76,0,0,1,3.72-2.59,13.21,13.21,0,0,1,3.68-1.16,20.37,20.37,0,0,1,3.06-.27,15.56,15.56,0,0,1,7.31,1.47,11.27,11.27,0,0,1,4.2,3.67,12.36,12.36,0,0,1,1.89,4.73,27.74,27.74,0,0,1,.44,4.61v31.19h-7.45v-28.6a42.27,42.27,0,0,0-.3-5.36,10.94,10.94,0,0,0-1.23-3.94,5.84,5.84,0,0,0-2.58-2.41,10.08,10.08,0,0,0-4.38-.8,9.14,9.14,0,0,0-5.82,1.69,11.55,11.55,0,0,0-3.29,4.11,17.3,17.3,0,0,0-1.49,5.14,38.2,38.2,0,0,0-.34,4.7v25.47h-7.45v-28.6c0-1.07,0-2.33-.13-3.76a13.06,13.06,0,0,0-.92-4.11,8.08,8.08,0,0,0-2.41-3.3,7,7,0,0,0-4.59-1.34,9.92,9.92,0,0,0-6.39,1.83,11.28,11.28,0,0,0-3.38,4.38,17.25,17.25,0,0,0-1.35,5.18c-.18,1.76-.27,3.17-.27,4.25v25.47Z"/><path class="cls-1" d="M540.4,293.58h7.44v7.24h.35q3.24-8.22,13.66-8.22a19.46,19.46,0,0,1,8.06,1.65,18.11,18.11,0,0,1,6.35,4.74,22.34,22.34,0,0,1,4.16,7.37,32.07,32.07,0,0,1,0,19.26,21.75,21.75,0,0,1-4.16,7.37,18.49,18.49,0,0,1-6.35,4.7,20.15,20.15,0,0,1-12.22,1.2,14.77,14.77,0,0,1-3.89-1.43,12,12,0,0,1-3.29-2.59,12.43,12.43,0,0,1-2.32-3.93h-.35v29.67H540.4Zm7.44,25.65a19.68,19.68,0,0,0,1,6.53,15.8,15.8,0,0,0,2.67,4.87,11,11,0,0,0,3.85,3,10.73,10.73,0,0,0,4.64,1,13.15,13.15,0,0,0,5.17-1,11.26,11.26,0,0,0,4.34-3.3,16.88,16.88,0,0,0,3-5.86,29.84,29.84,0,0,0,1.1-8.67,29.45,29.45,0,0,0-1.1-8.57,16.66,16.66,0,0,0-2.93-5.81,11.06,11.06,0,0,0-4.34-3.27,13.63,13.63,0,0,0-5.21-1,10.58,10.58,0,0,0-4.77,1.11,12.71,12.71,0,0,0-3.89,3,13.94,13.94,0,0,0-2.59,4.56,16.94,16.94,0,0,0-.92,5.59Z"/><path class="cls-1" d="M594,293.58v7.15h.52a14.73,14.73,0,0,1,4-6.08,9.21,9.21,0,0,1,6.13-2,10.34,10.34,0,0,1,1.36.13,10.11,10.11,0,0,1,2,.54,10.81,10.81,0,0,1,2.19,1.12,7.07,7.07,0,0,1,1.88,1.78l-3,5.54a11.86,11.86,0,0,0-2.49-2.5,5.92,5.92,0,0,0-3.72-1.34,7.35,7.35,0,0,0-3.07.72,8.06,8.06,0,0,0-2.89,2.32,12.79,12.79,0,0,0-2.14,4.16,20,20,0,0,0-.83,6.21v27h-7.45V293.58Z"/><path class="cls-1" d="M629.35,292.6q6.39,0,9.9,1.83a12,12,0,0,1,5.12,4.78,16.18,16.18,0,0,1,1.89,6.79q.25,3.86.26,7.87v24.4h-7.09v-4.38a18.25,18.25,0,0,1-6.48,4,22.41,22.41,0,0,1-7.88,1.47,15.74,15.74,0,0,1-6.66-1.34,14.62,14.62,0,0,1-4.81-3.49,14.41,14.41,0,0,1-2.89-4.82,16.09,16.09,0,0,1-1-5.45,16.46,16.46,0,0,1,1-5.72,15.28,15.28,0,0,1,3.15-5.14,16.18,16.18,0,0,1,5.17-3.71,16.39,16.39,0,0,1,7-1.43,18.42,18.42,0,0,1,7.49,1.56,15.17,15.17,0,0,1,5.82,4.43v-3.85q0-7.32-2.15-10.9c-1.44-2.38-4.06-3.58-7.87-3.58a13.36,13.36,0,0,0-4.31.63,11.36,11.36,0,0,0-3.29,1.74,14.2,14.2,0,0,0-2.69,2.77c-.82,1.11-1.64,2.34-2.46,3.71l-4.49-4.64c.82-.9,1.68-1.79,2.58-2.69a15.18,15.18,0,0,1,3.33-2.41,19.71,19.71,0,0,1,4.69-1.74A27.65,27.65,0,0,1,629.35,292.6Zm10.08,28a19.94,19.94,0,0,0-1.28-2.5A13.82,13.82,0,0,0,636,315.3a12,12,0,0,0-3.16-2.28,9.58,9.58,0,0,0-4.4-.94,10.44,10.44,0,0,0-4.66,1,11.25,11.25,0,0,0-3.56,2.68,11.77,11.77,0,0,0-2.24,3.89,13.77,13.77,0,0,0-.79,4.65,11.4,11.4,0,0,0,1,5,11.8,11.8,0,0,0,2.59,3.57,10.84,10.84,0,0,0,7.21,2.9,9.82,9.82,0,0,0,3.39-.62,13.62,13.62,0,0,0,3.25-1.74,15,15,0,0,0,2.77-2.64,14.53,14.53,0,0,0,2-3.31Z"/><path class="cls-1" d="M653.79,338.27V293.58h7.44v7.24h.35a12.33,12.33,0,0,1,2.67-4.2,12.82,12.82,0,0,1,3.46-2.5,13.45,13.45,0,0,1,3.68-1.21,18.9,18.9,0,0,1,3.15-.31,13.77,13.77,0,0,1,5,.8,12.54,12.54,0,0,1,6,4.78,14.34,14.34,0,0,1,1.49,2.91h.62a14.73,14.73,0,0,1,3.1-4.47,14.08,14.08,0,0,1,3.72-2.59,13.31,13.31,0,0,1,3.68-1.16,20.49,20.49,0,0,1,3.07-.27,15.58,15.58,0,0,1,7.31,1.47,11.27,11.27,0,0,1,4.2,3.67,12.34,12.34,0,0,1,1.88,4.73,27.74,27.74,0,0,1,.44,4.61v31.19h-7.44v-28.6a40.35,40.35,0,0,0-.31-5.36,10.75,10.75,0,0,0-1.22-3.94,5.92,5.92,0,0,0-2.59-2.41,10.07,10.07,0,0,0-4.37-.8,9.15,9.15,0,0,0-5.83,1.69A11.52,11.52,0,0,0,690,303a17,17,0,0,0-1.49,5.14,38.43,38.43,0,0,0-.35,4.7v25.47h-7.44v-28.6c0-1.07,0-2.33-.13-3.76a13.35,13.35,0,0,0-.92-4.11,8.17,8.17,0,0,0-2.41-3.3,7,7,0,0,0-4.6-1.34,10,10,0,0,0-6.39,1.83,11.25,11.25,0,0,0-3.37,4.38,17.57,17.57,0,0,0-1.36,5.18c-.17,1.76-.26,3.17-.26,4.25v25.47Z"/><path class="cls-1" d="M765,316a25.4,25.4,0,0,1-1.58,8.9,22.62,22.62,0,0,1-4.51,7.46,21.46,21.46,0,0,1-7.09,5.09,22.44,22.44,0,0,1-9.33,1.88,22.81,22.81,0,0,1-9.5-1.92,21.78,21.78,0,0,1-7.18-5.14,23.41,23.41,0,0,1-4.55-7.46,25,25,0,0,1,0-17.7,23.3,23.3,0,0,1,4.55-7.46,21.63,21.63,0,0,1,7.18-5.14,22.81,22.81,0,0,1,9.5-1.92,21.71,21.71,0,0,1,16.42,7.06,22.51,22.51,0,0,1,4.51,7.46A25.38,25.38,0,0,1,765,316Zm-8.32,0a32.21,32.21,0,0,0-1.32-10.14,15.59,15.59,0,0,0-3.41-6,10.88,10.88,0,0,0-4.64-2.91,16.21,16.21,0,0,0-9.81,0,11.18,11.18,0,0,0-4.68,2.91,15.67,15.67,0,0,0-3.5,6,38.18,38.18,0,0,0,0,20.2,15.67,15.67,0,0,0,3.5,6,11.18,11.18,0,0,0,4.68,2.91,16.41,16.41,0,0,0,9.81,0,10.88,10.88,0,0,0,4.64-2.91,15.59,15.59,0,0,0,3.41-6A31.93,31.93,0,0,0,756.67,316Z"/><path class="cls-1" d="M792.58,303.77a6,6,0,0,0-.61-2.5,6.89,6.89,0,0,0-1.92-2.46,11.25,11.25,0,0,0-3.22-1.88,12.47,12.47,0,0,0-4.54-.76,11,11,0,0,0-4.36.76,8.13,8.13,0,0,0-2.79,1.88,6.57,6.57,0,0,0-1.49,2.41,7.78,7.78,0,0,0-.43,2.46,5.1,5.1,0,0,0,2,4.29,18,18,0,0,0,4.93,2.59c2,.72,4.12,1.4,6.41,2.06a33.16,33.16,0,0,1,6.42,2.54,14.75,14.75,0,0,1,4.93,4.16,11.1,11.1,0,0,1,2,6.88,12.11,12.11,0,0,1-4.07,9.52q-4.07,3.61-12.12,3.62a24.8,24.8,0,0,1-7.84-1.12,17.73,17.73,0,0,1-5.69-3,12.34,12.34,0,0,1-3.46-4.25,11.07,11.07,0,0,1-1.14-4.87h5.69a7.35,7.35,0,0,0,.66,2.68,10.1,10.1,0,0,0,2.19,3.18,13.31,13.31,0,0,0,3.94,2.68,14,14,0,0,0,5.91,1.11,12.38,12.38,0,0,0,4.64-.75,8.37,8.37,0,0,0,2.89-1.88,6.09,6.09,0,0,0,1.44-2.46,8.93,8.93,0,0,0,.4-2.59,5.88,5.88,0,0,0-1.92-4.65,15.72,15.72,0,0,0-4.8-2.81c-1.92-.75-4-1.43-6.24-2.06a31.31,31.31,0,0,1-6.24-2.46,14.42,14.42,0,0,1-4.8-4,10.89,10.89,0,0,1-1.92-6.79,12.68,12.68,0,0,1,1.13-5.5,11.45,11.45,0,0,1,3.1-4,13.19,13.19,0,0,1,4.63-2.42,19.92,19.92,0,0,1,5.72-.8,21,21,0,0,1,6.07.85,17.4,17.4,0,0,1,5,2.32,11.16,11.16,0,0,1,3.36,3.53,8.55,8.55,0,0,1,1.23,4.47Z"/><path class="cls-1" d="M372.09,395.36l-7.71,18.41h-4l25.92-62.56h4.38l28.54,62.56H410.7l-8.41-18.41Zm14.62-34.14h-.35l-12.61,30.12h26.7Z"/><path class="cls-1" d="M451.24,413.77v-29.4c0-.6-.06-1.55-.18-2.86a11.94,11.94,0,0,0-1.09-3.94,9.08,9.08,0,0,0-2.94-3.44,9.52,9.52,0,0,0-5.69-1.47,12.61,12.61,0,0,0-4.42.8,10.47,10.47,0,0,0-3.81,2.5,12.19,12.19,0,0,0-2.62,4.21,16.44,16.44,0,0,0-1,6v27.62h-7.44V369.08h7.44v5.72h.35l1.4-1.43a16.77,16.77,0,0,1,6.22-4.24,15.45,15.45,0,0,1,5.69-1q5.77,0,8.93,2a12.8,12.8,0,0,1,4.6,4.74,14.82,14.82,0,0,1,1.71,5.54c.17,1.88.26,3.35.26,4.42v29Z"/><path class="cls-1" d="M461.83,372.66v-3.58h7.62V355.32h7.44v13.76h10.6v3.58h-10.6v29.67c0,.72,0,1.53.09,2.46a9.38,9.38,0,0,0,.52,2.59,5,5,0,0,0,1.36,2,3.76,3.76,0,0,0,2.58.8,4.46,4.46,0,0,0,3.51-1.6,15,15,0,0,0,2.27-3.49l4.12,4.29a13.28,13.28,0,0,1-9.72,4.38,13,13,0,0,1-4.47-.8,11.08,11.08,0,0,1-3.89-2.46,12.13,12.13,0,0,1-2.76-4.25,16.08,16.08,0,0,1-1.05-6.08V372.66Z"/><path class="cls-1" d="M495.45,351.57a4.59,4.59,0,0,1,6.66,0,4.82,4.82,0,0,1,0,6.79,4.59,4.59,0,0,1-6.66,0,4.82,4.82,0,0,1,0-6.79Zm7.18,17.51v44.69h-7.44V369.08Z"/><path class="cls-1" d="M543.79,406.62h-.35a10.88,10.88,0,0,1-5.13,6.26,17.67,17.67,0,0,1-8.53,2,19.35,19.35,0,0,1-8.1-1.65,17.7,17.7,0,0,1-6.26-4.74,22,22,0,0,1-4.07-7.42,30.34,30.34,0,0,1-1.45-9.69,29.67,29.67,0,0,1,1.45-9.57,21.47,21.47,0,0,1,4.07-7.32,18,18,0,0,1,6.3-4.7,19.67,19.67,0,0,1,8.14-1.65,17.32,17.32,0,0,1,9.07,2.1,9.74,9.74,0,0,1,4.51,5.85h.35v-7h7.44V413a43.45,43.45,0,0,1-.84,8.62,18.94,18.94,0,0,1-3.11,7.37,15.76,15.76,0,0,1-6.4,5.14A25.69,25.69,0,0,1,530.1,436a20.33,20.33,0,0,1-6.4-.93,22,22,0,0,1-4.82-2.24,21,21,0,0,1-3.33-2.59,24.44,24.44,0,0,1-1.93-2.1l4.77-4.47a24.93,24.93,0,0,0,5.23,6.43,11.24,11.24,0,0,0,7.51,2.42,15,15,0,0,0,5-.81,10,10,0,0,0,4-2.59,12.36,12.36,0,0,0,2.68-4.65,22,22,0,0,0,1-7Zm0-18.5a21.93,21.93,0,0,0-.8-5.9,16.24,16.24,0,0,0-2.32-5.05,11.65,11.65,0,0,0-3.82-3.48,10.31,10.31,0,0,0-5.19-1.3A15.89,15.89,0,0,0,528,373a11,11,0,0,0-4.57,2.55,16.22,16.22,0,0,0-3.91,5.67,24.58,24.58,0,0,0-1.67,10,28.69,28.69,0,0,0,1.36,9.65,15.58,15.58,0,0,0,3.43,5.81,11.06,11.06,0,0,0,4.48,2.82,15.3,15.3,0,0,0,4.52.75,10.72,10.72,0,0,0,4.57-1,11.57,11.57,0,0,0,3.87-3,15.19,15.19,0,0,0,2.67-4.82,19.67,19.67,0,0,0,1-6.62Z"/><path class="cls-1" d="M565.94,369.08v29.5c0,.59,0,1.53.17,2.81a10.73,10.73,0,0,0,1.18,3.89,9,9,0,0,0,8.8,4.91,12.06,12.06,0,0,0,4.38-.8,9.9,9.9,0,0,0,3.68-2.46,12.29,12.29,0,0,0,2.54-4.15,16.76,16.76,0,0,0,1-6V369.08h7.44v44.69h-7.44v-5.63h-.35l-1.4,1.43a16.84,16.84,0,0,1-6.09,4.24,14.48,14.48,0,0,1-5.55,1q-5.79,0-9-2a13.06,13.06,0,0,1-4.68-4.74,14.59,14.59,0,0,1-1.8-5.54c-.2-1.87-.31-3.35-.31-4.42V369.08Z"/><path class="cls-1" d="M608.31,393.39a21.8,21.8,0,0,0,1.58,8.94,14.78,14.78,0,0,0,3.93,5.45,13.62,13.62,0,0,0,5.1,2.73,19.88,19.88,0,0,0,5.2.76,15.25,15.25,0,0,0,4-.49,16.08,16.08,0,0,0,3.45-1.39,19.83,19.83,0,0,0,3.28-2.23q1.6-1.35,3.45-3l2.79,2.86a24,24,0,0,1-8.23,5.76,26.14,26.14,0,0,1-10.33,2,23.25,23.25,0,0,1-10-2,20,20,0,0,1-7-5.36,22.88,22.88,0,0,1-4.12-7.6,28.55,28.55,0,0,1-1.35-8.71,27.48,27.48,0,0,1,1.57-9.61,21.3,21.3,0,0,1,4.38-7.24,19,19,0,0,1,6.57-4.56,21.28,21.28,0,0,1,8.23-1.56,22.34,22.34,0,0,1,8,1.43,18.5,18.5,0,0,1,6.61,4.29,20.47,20.47,0,0,1,4.51,7.24,29.37,29.37,0,0,1,1.66,10.37v1.87Zm25.48-3.57q0-8.67-3.43-13.63a11,11,0,0,0-9.61-5,9.86,9.86,0,0,0-5.57,1.56,12.69,12.69,0,0,0-3.87,4.16,20.67,20.67,0,0,0-2.26,5.94,32.34,32.34,0,0,0-.74,6.93Z"/><path class="cls-1" d="M685,413.77h-7.44v-7.24h-.35q-3.33,8.31-13.66,8.31a19.42,19.42,0,0,1-8-1.65,18.11,18.11,0,0,1-6.35-4.74A22.12,22.12,0,0,1,645,401a29.77,29.77,0,0,1-1.49-9.69,29.12,29.12,0,0,1,1.49-9.57,21.63,21.63,0,0,1,4.16-7.32,18.49,18.49,0,0,1,6.35-4.7,20.11,20.11,0,0,1,12.21-1.2,15,15,0,0,1,3.9,1.43,12.36,12.36,0,0,1,3.28,2.54,11.66,11.66,0,0,1,2.32,3.89h.35v-25.2H685Zm-7.44-25.65a19.58,19.58,0,0,0-1-6.52,16.08,16.08,0,0,0-2.68-4.88,10.93,10.93,0,0,0-3.85-3,10.7,10.7,0,0,0-4.64-1,13.1,13.1,0,0,0-5.16,1,11.19,11.19,0,0,0-4.34,3.3,16.71,16.71,0,0,0-3,5.86,34.36,34.36,0,0,0,0,17.25,16.44,16.44,0,0,0,2.93,5.8,11,11,0,0,0,4.29,3.27,13.5,13.5,0,0,0,5.25,1,10.55,10.55,0,0,0,4.77-1.11,12.14,12.14,0,0,0,3.86-3,14.88,14.88,0,0,0,2.58-4.56,16.2,16.2,0,0,0,1-5.58Z"/><path class="cls-1" d="M708.38,368.1q6.39,0,9.9,1.83a11.94,11.94,0,0,1,5.13,4.78,16.22,16.22,0,0,1,1.88,6.8c.18,2.56.26,5.18.26,7.86v24.4h-7.09v-4.38a18.16,18.16,0,0,1-6.48,4,22.37,22.37,0,0,1-7.88,1.47,15.52,15.52,0,0,1-6.65-1.34,14.34,14.34,0,0,1-7.71-8.31,16.05,16.05,0,0,1-1-5.45,16.5,16.5,0,0,1,1.05-5.72,15.28,15.28,0,0,1,3.15-5.14,16.18,16.18,0,0,1,5.17-3.71,16.42,16.42,0,0,1,7-1.43,18.42,18.42,0,0,1,7.49,1.56,15.17,15.17,0,0,1,5.82,4.43v-3.84q0-7.33-2.15-10.91t-7.87-3.57a13.65,13.65,0,0,0-4.31.62,11.27,11.27,0,0,0-3.29,1.75,13.62,13.62,0,0,0-2.68,2.77,44.23,44.23,0,0,0-2.46,3.71l-4.5-4.65c.82-.9,1.68-1.79,2.59-2.68a14.44,14.44,0,0,1,3.33-2.42,19.82,19.82,0,0,1,4.69-1.74A27.62,27.62,0,0,1,708.38,368.1Zm10.08,28a21.94,21.94,0,0,0-1.27-2.5A14.26,14.26,0,0,0,715,390.8a12.25,12.25,0,0,0-3.16-2.28,9.68,9.68,0,0,0-4.4-.94,10.58,10.58,0,0,0-4.66,1,11.4,11.4,0,0,0-3.56,2.68,12,12,0,0,0-2.24,3.89,13.77,13.77,0,0,0-.79,4.65,11.37,11.37,0,0,0,1,5,11.83,11.83,0,0,0,2.6,3.57,10.15,10.15,0,0,0,3.51,2.19,10.58,10.58,0,0,0,3.69.72,9.8,9.8,0,0,0,3.39-.63,13.28,13.28,0,0,0,3.25-1.74,14.4,14.4,0,0,0,2.77-2.64,14.68,14.68,0,0,0,2-3.3Z"/><path class="cls-1" d="M771.7,413.77h-7.45v-7.24h-.35q-3.33,8.31-13.66,8.31a19.42,19.42,0,0,1-8-1.65,18.11,18.11,0,0,1-6.35-4.74,22.12,22.12,0,0,1-4.16-7.42,29.77,29.77,0,0,1-1.49-9.69,29.12,29.12,0,0,1,1.49-9.57,21.63,21.63,0,0,1,4.16-7.32,18.49,18.49,0,0,1,6.35-4.7,20.11,20.11,0,0,1,12.21-1.2,15,15,0,0,1,3.9,1.43,12.2,12.2,0,0,1,3.28,2.54,11.66,11.66,0,0,1,2.32,3.89h.35v-25.2h7.45Zm-7.45-25.65a19.58,19.58,0,0,0-1-6.52,16.06,16.06,0,0,0-2.67-4.88,11.05,11.05,0,0,0-3.86-3,10.7,10.7,0,0,0-4.64-1,13.1,13.1,0,0,0-5.16,1,11.19,11.19,0,0,0-4.34,3.3,16.88,16.88,0,0,0-3,5.86,34.36,34.36,0,0,0,0,17.25,16.61,16.61,0,0,0,2.93,5.8,11,11,0,0,0,4.29,3.27,13.5,13.5,0,0,0,5.25,1,10.52,10.52,0,0,0,4.77-1.11,12.14,12.14,0,0,0,3.86-3,14.88,14.88,0,0,0,2.58-4.56,16.2,16.2,0,0,0,1-5.58Z"/><path class="cls-1" d="M784.65,393.39a21.8,21.8,0,0,0,1.58,8.94,14.87,14.87,0,0,0,3.92,5.45,13.74,13.74,0,0,0,5.11,2.73,19.88,19.88,0,0,0,5.2.76,15.3,15.3,0,0,0,4-.49,16.08,16.08,0,0,0,3.45-1.39,19.83,19.83,0,0,0,3.28-2.23q1.61-1.35,3.45-3l2.79,2.86a24,24,0,0,1-8.23,5.76,26.14,26.14,0,0,1-10.33,2,23.25,23.25,0,0,1-10-2,20,20,0,0,1-7-5.36,22.88,22.88,0,0,1-4.12-7.6,28.55,28.55,0,0,1-1.35-8.71,27.48,27.48,0,0,1,1.57-9.61,21.3,21.3,0,0,1,4.38-7.24,19,19,0,0,1,6.57-4.56,21.28,21.28,0,0,1,8.23-1.56,22.29,22.29,0,0,1,8,1.43,18.45,18.45,0,0,1,6.62,4.29,20.45,20.45,0,0,1,4.5,7.24,29.13,29.13,0,0,1,1.67,10.37v1.87Zm25.48-3.57q0-8.67-3.43-13.63a11,11,0,0,0-9.61-5,9.84,9.84,0,0,0-5.57,1.56,12.69,12.69,0,0,0-3.87,4.16,20.67,20.67,0,0,0-2.26,5.94,32.34,32.34,0,0,0-.74,6.93Z"/><path class="cls-1" d="M845.44,379.27a6,6,0,0,0-.62-2.5,7.06,7.06,0,0,0-1.92-2.46,11.48,11.48,0,0,0-3.22-1.88,12.44,12.44,0,0,0-4.54-.75,11.07,11.07,0,0,0-4.36.75,8.38,8.38,0,0,0-2.79,1.88,6.65,6.65,0,0,0-1.49,2.41,7.78,7.78,0,0,0-.43,2.46,5.1,5.1,0,0,0,2,4.29,17.69,17.69,0,0,0,4.93,2.59c2,.72,4.12,1.4,6.42,2.06a33.73,33.73,0,0,1,6.41,2.55,14.72,14.72,0,0,1,4.93,4.15,11.11,11.11,0,0,1,2,6.88,12.1,12.1,0,0,1-4.08,9.52q-4.07,3.63-12.12,3.62a24.8,24.8,0,0,1-7.84-1.12,17.83,17.83,0,0,1-5.69-3,12.3,12.3,0,0,1-3.46-4.24,11.15,11.15,0,0,1-1.14-4.88h5.69a7.44,7.44,0,0,0,.66,2.69,10.07,10.07,0,0,0,2.19,3.17,13.13,13.13,0,0,0,3.94,2.68,13.88,13.88,0,0,0,5.91,1.12,12.36,12.36,0,0,0,4.64-.76,8.14,8.14,0,0,0,2.89-1.88,6,6,0,0,0,1.44-2.46,8.87,8.87,0,0,0,.4-2.59,5.9,5.9,0,0,0-1.92-4.65,15.72,15.72,0,0,0-4.8-2.81c-1.92-.75-4-1.43-6.24-2.06a31.29,31.29,0,0,1-6.24-2.45,14.57,14.57,0,0,1-4.8-4,10.87,10.87,0,0,1-1.92-6.79,12.57,12.57,0,0,1,1.14-5.5,11.43,11.43,0,0,1,3.1-4,13.31,13.31,0,0,1,4.62-2.42,19.92,19.92,0,0,1,5.72-.8,21,21,0,0,1,6.07.85,17.67,17.67,0,0,1,5,2.32,11.41,11.41,0,0,1,3.37,3.53,8.63,8.63,0,0,1,1.22,4.47Z"/><path class="cls-1" d="M325.74,248.27H218a13,13,0,0,0-12.93,12.93V425.62A13,13,0,0,0,218,438.56H325.74a13,13,0,0,0,12.93-12.94V261.2A13,13,0,0,0,325.74,248.27Zm8.34,175.56a9.46,9.46,0,0,1-9.44,9.44H218.86a9.46,9.46,0,0,1-9.44-9.44V262a9.46,9.46,0,0,1,9.44-9.44H324.64a9.47,9.47,0,0,1,9.44,9.44Z"/><path class="cls-1" d="M325.05,255.16H218.69a6.27,6.27,0,0,0-6.25,6.25V424.13a6.26,6.26,0,0,0,6.25,6.24H325.05a6.26,6.26,0,0,0,6.25-6.24V261.41A6.27,6.27,0,0,0,325.05,255.16Zm5.39,168.93a5.5,5.5,0,0,1-5.49,5.48H218.62a5.5,5.5,0,0,1-5.49-5.48V261.62a5.5,5.5,0,0,1,5.49-5.48H325a5.5,5.5,0,0,1,5.49,5.48Z"/></svg>