<svg id="Capa_1" data-name="Capa 1" xmlns="http://www.w3.org/2000/svg" viewBox="0 0 1172.57 665.14"><defs><style>.cls-1{fill:#eae9db;}</style></defs><title>Imagotipo Blanco</title><path class="cls-1" d="M336.38,351.14q.4,21.76.83,43.54h9q0-19.17.07-38.35a31.78,31.78,0,0,1-4.37-1.75A30.55,30.55,0,0,1,336.38,351.14Z"/><path class="cls-1" d="M381.47,349.86a43.32,43.32,0,0,1-13.06,2.32,37.13,37.13,0,0,1-16.58-3,35.54,35.54,0,0,1-12-8.7,36.85,36.85,0,0,1-7.24-12.58,45.2,45.2,0,0,1-2.46-14.86A42.3,42.3,0,0,1,332.75,298,34.83,34.83,0,0,1,340,286.22a33.17,33.17,0,0,1,11.07-7.74,36.61,36.61,0,0,1,23.33-1.57,32.87,32.87,0,0,1,7.55,3.14,20.65,20.65,0,0,1,5.38,4.41,15.34,15.34,0,0,1,2.94,5h8.85a33.66,33.66,0,0,0-4.61-7.62,26.44,26.44,0,0,0-7-6,36.14,36.14,0,0,0-9.81-4,51.29,51.29,0,0,0-12.81-1.46,56.55,56.55,0,0,0-19,3,41.9,41.9,0,0,0-14.66,8.64,38.71,38.71,0,0,0-9.46,13.54,45,45,0,0,0-3.35,17.7,51.76,51.76,0,0,0,2.69,16.5,39.91,39.91,0,0,0,8.33,14.26,41.11,41.11,0,0,0,14.35,10c8.07,3.52,15.05,3.71,20.83,3.81a70.06,70.06,0,0,0,16.76-1.74Q381.43,353,381.47,349.86Z"/><path class="cls-1" d="M397.32,340.85c-.48.53-1,1.07-1.58,1.62a30.17,30.17,0,0,1-3.57,2.9l.11,6.53a41.8,41.8,0,0,0,4.2-3.25,43.08,43.08,0,0,0,4.43-4.54Z"/><path class="cls-1" d="M384.37,307.38q-6.76-6.9-20.19-6.9T344,307.38c-5.64,5.7-6.26,13.93-6.83,20.07a48.19,48.19,0,0,0-.13,7.25,25,25,0,0,0,3.38,4.72,25.25,25.25,0,0,0,5.77,4.72c0-3.42-.08-8.21-.07-14.13a41.58,41.58,0,0,1,.83-9,18.61,18.61,0,0,1,2.87-7,13.36,13.36,0,0,1,5.56-4.54,21.23,21.23,0,0,1,8.76-1.6,20.79,20.79,0,0,1,8.69,1.6,14,14,0,0,1,5.56,4.54,18.06,18.06,0,0,1,2.94,7,45,45,0,0,1,.83,9v21.41a62.64,62.64,0,0,1,.59,10.07,62.64,62.64,0,0,0-.59-10.07v43.26h8.95V327.32Q391.15,314.28,384.37,307.38Z"/><path class="cls-1" d="M515.12,322.59a25.67,25.67,0,0,1-3.33,3.13,26.48,26.48,0,0,1-5.47,3.35,39,39,0,0,1-7.71,2.64,42.41,42.41,0,0,1-10,1.07A37.73,37.73,0,0,1,473.35,330a30.25,30.25,0,0,1-10.51-7.42A29.59,29.59,0,0,1,456.76,312a38.29,38.29,0,0,1-2-12.2,33.48,33.48,0,0,1,2.45-13.09,28.48,28.48,0,0,1,6.92-10,30.6,30.6,0,0,1,10.72-6.39,41.07,41.07,0,0,1,13.88-2.23,37.55,37.55,0,0,1,9.37,1.07,26.65,26.65,0,0,1,7.18,3,19.34,19.34,0,0,1,5.12,4.47,24.72,24.72,0,0,1,3.37,5.63h-6.48a11.33,11.33,0,0,0-2.14-3.71,15.17,15.17,0,0,0-3.94-3.26,23.93,23.93,0,0,0-5.52-2.33,26.55,26.55,0,0,0-17.07,1.17,24.14,24.14,0,0,0-8.1,5.72,25.82,25.82,0,0,0-5.3,8.71,31.78,31.78,0,0,0-1.88,11.13,34.07,34.07,0,0,0,1.79,11,27.54,27.54,0,0,0,5.3,9.29,25.62,25.62,0,0,0,8.76,6.44,28.63,28.63,0,0,0,12.08,2.41,29.55,29.55,0,0,0,21.19-8.58Z"/><path class="cls-1" d="M559.86,309.46a25.34,25.34,0,0,1-1.58,8.89,22.51,22.51,0,0,1-4.51,7.46,21.25,21.25,0,0,1-7.09,5.1,22.44,22.44,0,0,1-9.33,1.87,22.81,22.81,0,0,1-9.5-1.92,21.63,21.63,0,0,1-7.18-5.14,23.3,23.3,0,0,1-4.55-7.46,24.46,24.46,0,0,1-1.62-8.8,24.8,24.8,0,0,1,1.62-8.9,23.52,23.52,0,0,1,4.55-7.46,21.92,21.92,0,0,1,7.18-5.14,22.81,22.81,0,0,1,9.5-1.92,21.71,21.71,0,0,1,16.42,7.06,22.72,22.72,0,0,1,4.51,7.46A25.44,25.44,0,0,1,559.86,309.46Zm-8.32,0a32.65,32.65,0,0,0-1.31-10.15,15.73,15.73,0,0,0-3.42-6,10.76,10.76,0,0,0-4.64-2.9,16.21,16.21,0,0,0-9.81,0,11.05,11.05,0,0,0-4.68,2.9,15.67,15.67,0,0,0-3.5,6,31.35,31.35,0,0,0-1.36,10.15,30.9,30.9,0,0,0,1.36,10.05,15.67,15.67,0,0,0,3.5,6,11.18,11.18,0,0,0,4.68,2.91,16.21,16.21,0,0,0,9.81,0,10.88,10.88,0,0,0,4.64-2.91,15.73,15.73,0,0,0,3.42-6A32.19,32.19,0,0,0,551.54,309.46Z"/><path class="cls-1" d="M564.5,331.71V287h7.44v7.24h.35a12.53,12.53,0,0,1,2.67-4.2,13,13,0,0,1,3.46-2.5,13.8,13.8,0,0,1,3.68-1.21,20,20,0,0,1,3.15-.31,13.58,13.58,0,0,1,5,.81,12.39,12.39,0,0,1,6,4.78,14,14,0,0,1,1.49,2.9h.62a15,15,0,0,1,3.1-4.47,14.32,14.32,0,0,1,3.72-2.59,14,14,0,0,1,3.68-1.16,20.49,20.49,0,0,1,3.07-.27,15.45,15.45,0,0,1,7.31,1.48,11.16,11.16,0,0,1,4.2,3.66,12.32,12.32,0,0,1,1.88,4.74,27.62,27.62,0,0,1,.44,4.6v31.19h-7.44v-28.6a40.46,40.46,0,0,0-.31-5.36,10.63,10.63,0,0,0-1.22-3.93,5.88,5.88,0,0,0-2.59-2.42,10.23,10.23,0,0,0-4.38-.8,9.14,9.14,0,0,0-5.82,1.7,11.35,11.35,0,0,0-3.28,4.11,16.93,16.93,0,0,0-1.49,5.14,38.28,38.28,0,0,0-.35,4.69v25.47h-7.44v-28.6c0-1.07,0-2.32-.13-3.75a13.35,13.35,0,0,0-.92-4.11,8.21,8.21,0,0,0-2.41-3.31,7,7,0,0,0-4.6-1.34,10,10,0,0,0-6.39,1.83,11.25,11.25,0,0,0-3.37,4.38A17.65,17.65,0,0,0,572.2,302c-.17,1.76-.26,3.18-.26,4.25v25.47Z"/><path class="cls-1" d="M633,287h7.44v7.24h.35Q644,286,654.42,286a19.42,19.42,0,0,1,8.05,1.65,18.26,18.26,0,0,1,6.35,4.74A22.37,22.37,0,0,1,673,299.8a31.86,31.86,0,0,1,0,19.26,21.63,21.63,0,0,1-4.16,7.38,18.37,18.37,0,0,1-6.35,4.69,19.42,19.42,0,0,1-8.05,1.65,20.06,20.06,0,0,1-4.16-.44,15.33,15.33,0,0,1-3.9-1.43,12,12,0,0,1-3.28-2.6,12.24,12.24,0,0,1-2.32-3.93h-.35v29.67H633Zm7.44,25.65a19.64,19.64,0,0,0,1,6.53,15.68,15.68,0,0,0,2.67,4.87,11.17,11.17,0,0,0,3.85,3,10.88,10.88,0,0,0,4.64,1,13.36,13.36,0,0,0,5.17-1,11.36,11.36,0,0,0,4.33-3.31,16.76,16.76,0,0,0,3-5.85,29.91,29.91,0,0,0,1.09-8.67,29.5,29.5,0,0,0-1.09-8.58,16.76,16.76,0,0,0-2.94-5.81,10.91,10.91,0,0,0-4.33-3.26,13.45,13.45,0,0,0-5.21-1,10.46,10.46,0,0,0-4.77,1.12,12.34,12.34,0,0,0-3.9,3,13.8,13.8,0,0,0-2.58,4.55,16.94,16.94,0,0,0-.92,5.59Z"/><path class="cls-1" d="M686.55,287v7.15h.53a14.69,14.69,0,0,1,4-6.07,9.19,9.19,0,0,1,6.12-2.06,10.47,10.47,0,0,1,1.36.14,9.63,9.63,0,0,1,2,.53,11,11,0,0,1,2.18,1.12,7.3,7.3,0,0,1,1.89,1.79l-3,5.54a11.72,11.72,0,0,0-2.5-2.5,5.84,5.84,0,0,0-3.72-1.35,7.34,7.34,0,0,0-3.06.72,8.08,8.08,0,0,0-2.89,2.32,12.9,12.9,0,0,0-2.15,4.16,20.34,20.34,0,0,0-.83,6.21v27h-7.44V287Z"/><path class="cls-1" d="M721.91,286c4.26,0,7.57.61,9.9,1.83a12,12,0,0,1,5.13,4.79,16.13,16.13,0,0,1,1.88,6.79q.27,3.84.27,7.86v24.4H732v-4.38a18,18,0,0,1-6.48,4,22.37,22.37,0,0,1-7.88,1.47,15.55,15.55,0,0,1-6.65-1.34,14.34,14.34,0,0,1-7.71-8.31,16.05,16.05,0,0,1-1-5.45,16.5,16.5,0,0,1,1.05-5.72,15.28,15.28,0,0,1,3.15-5.14,16.17,16.17,0,0,1,12.17-5.14,18.23,18.23,0,0,1,7.49,1.57,14.9,14.9,0,0,1,5.82,4.42v-3.84q0-7.33-2.15-10.91T722,289.35a13.59,13.59,0,0,0-4.3.62,11.33,11.33,0,0,0-3.3,1.75,13.88,13.88,0,0,0-2.68,2.77,44.23,44.23,0,0,0-2.46,3.71l-4.5-4.65c.82-.89,1.68-1.79,2.59-2.68a14.44,14.44,0,0,1,3.33-2.42,20,20,0,0,1,4.69-1.74A27.62,27.62,0,0,1,721.91,286ZM732,314a19.76,19.76,0,0,0-1.27-2.51,14.91,14.91,0,0,0-2.15-2.77,12.3,12.3,0,0,0-3.17-2.28,9.67,9.67,0,0,0-4.39-.94,10.55,10.55,0,0,0-4.66,1,11.17,11.17,0,0,0-3.56,2.68,11.69,11.69,0,0,0-2.24,3.89,13.78,13.78,0,0,0-.8,4.65,11.37,11.37,0,0,0,1,5,11.83,11.83,0,0,0,2.6,3.57,10.24,10.24,0,0,0,3.51,2.19,10.59,10.59,0,0,0,3.7.72,9.74,9.74,0,0,0,3.38-.63,12.78,12.78,0,0,0,3.25-1.74A14.11,14.11,0,0,0,730,324.2a14.33,14.33,0,0,0,2-3.3Z"/><path class="cls-1" d="M746.35,331.71V287h7.45v7.24h.35a12.53,12.53,0,0,1,2.67-4.2,13.15,13.15,0,0,1,3.45-2.5,14,14,0,0,1,3.68-1.21,20.26,20.26,0,0,1,3.15-.31,13.51,13.51,0,0,1,4.95.81,12.66,12.66,0,0,1,3.55,2,12.5,12.5,0,0,1,2.45,2.73,14.53,14.53,0,0,1,1.49,2.9h.61a15,15,0,0,1,3.11-4.47,14.15,14.15,0,0,1,3.72-2.59,13.9,13.9,0,0,1,3.68-1.16,20.37,20.37,0,0,1,3.06-.27,15.43,15.43,0,0,1,7.31,1.48,11.27,11.27,0,0,1,4.21,3.66,12.32,12.32,0,0,1,1.88,4.74,27.62,27.62,0,0,1,.44,4.6v31.19h-7.45v-28.6a42.38,42.38,0,0,0-.3-5.36,10.82,10.82,0,0,0-1.23-3.93A5.81,5.81,0,0,0,796,291.4a10.23,10.23,0,0,0-4.38-.8,9.14,9.14,0,0,0-5.82,1.7,11.38,11.38,0,0,0-3.29,4.11,17.2,17.2,0,0,0-1.48,5.14,36.39,36.39,0,0,0-.35,4.69v25.47h-7.45v-28.6c0-1.07,0-2.32-.13-3.75a13.06,13.06,0,0,0-.92-4.11,8.11,8.11,0,0,0-2.41-3.31,7,7,0,0,0-4.59-1.34,9.92,9.92,0,0,0-6.39,1.83,11.16,11.16,0,0,0-3.37,4.38,17.05,17.05,0,0,0-1.36,5.18c-.18,1.76-.26,3.18-.26,4.25v25.47Z"/><path class="cls-1" d="M857.55,309.46a25.33,25.33,0,0,1-1.57,8.89,22.85,22.85,0,0,1-4.51,7.46,21.29,21.29,0,0,1-7.1,5.1,22.42,22.42,0,0,1-9.32,1.87,22.81,22.81,0,0,1-9.5-1.92,21.53,21.53,0,0,1-7.18-5.14,23.12,23.12,0,0,1-4.55-7.46,24.46,24.46,0,0,1-1.62-8.8,24.8,24.8,0,0,1,1.62-8.9,23.34,23.34,0,0,1,4.55-7.46,21.82,21.82,0,0,1,7.18-5.14,22.81,22.81,0,0,1,9.5-1.92,21.75,21.75,0,0,1,16.42,7.06,23.06,23.06,0,0,1,4.51,7.46A25.43,25.43,0,0,1,857.55,309.46Zm-8.32,0a32.36,32.36,0,0,0-1.31-10.15,15.72,15.72,0,0,0-3.41-6,10.79,10.79,0,0,0-4.65-2.9,16.18,16.18,0,0,0-9.8,0,11,11,0,0,0-4.69,2.9,15.8,15.8,0,0,0-3.5,6,31.62,31.62,0,0,0-1.36,10.15,31.17,31.17,0,0,0,1.36,10.05,15.8,15.8,0,0,0,3.5,6,11.15,11.15,0,0,0,4.69,2.91,16.18,16.18,0,0,0,9.8,0,10.91,10.91,0,0,0,4.65-2.91,15.72,15.72,0,0,0,3.41-6A31.89,31.89,0,0,0,849.23,309.46Z"/><path class="cls-1" d="M885.15,297.21a6,6,0,0,0-.61-2.5,7.31,7.31,0,0,0-1.92-2.46,11.29,11.29,0,0,0-3.23-1.87,12.23,12.23,0,0,0-4.54-.76,10.89,10.89,0,0,0-4.36.76,8.32,8.32,0,0,0-2.79,1.87,6.58,6.58,0,0,0-1.48,2.42,7.7,7.7,0,0,0-.44,2.45,5.12,5.12,0,0,0,2,4.29,18,18,0,0,0,4.94,2.6c2,.71,4.11,1.4,6.41,2.05a33.47,33.47,0,0,1,6.41,2.55,14.63,14.63,0,0,1,4.93,4.15,11.14,11.14,0,0,1,2,6.89,12.12,12.12,0,0,1-4.07,9.51q-4.08,3.63-12.13,3.62a25.1,25.1,0,0,1-7.84-1.11,18.16,18.16,0,0,1-5.69-3,12.42,12.42,0,0,1-3.46-4.24,11.23,11.23,0,0,1-1.13-4.87h5.69a7.56,7.56,0,0,0,.65,2.68,10.07,10.07,0,0,0,2.19,3.17,13.26,13.26,0,0,0,3.94,2.68,13.94,13.94,0,0,0,5.91,1.12,12.13,12.13,0,0,0,4.64-.76,8.14,8.14,0,0,0,2.89-1.88,6,6,0,0,0,1.45-2.46,9.2,9.2,0,0,0,.39-2.59,5.88,5.88,0,0,0-1.92-4.64,15.73,15.73,0,0,0-4.8-2.82q-2.88-1.11-6.24-2.06a31.29,31.29,0,0,1-6.24-2.45,14.67,14.67,0,0,1-4.8-4,10.87,10.87,0,0,1-1.91-6.79,12.52,12.52,0,0,1,1.13-5.49,11.49,11.49,0,0,1,3.1-4,13.17,13.17,0,0,1,4.63-2.41,19.51,19.51,0,0,1,5.71-.81,20.91,20.91,0,0,1,6.07.85,17.87,17.87,0,0,1,5,2.32,11.49,11.49,0,0,1,3.36,3.53,8.66,8.66,0,0,1,1.22,4.47Z"/><path class="cls-1" d="M464.65,388.8,457,407.21h-4l25.91-62.56h4.38l28.55,62.56h-8.5l-8.4-18.41Zm14.62-34.14h-.35l-12.61,30.12H493Z"/><path class="cls-1" d="M543.8,407.21v-29.4c0-.6-.06-1.55-.17-2.86a11.61,11.61,0,0,0-1.1-3.93,9,9,0,0,0-2.93-3.44,9.44,9.44,0,0,0-5.69-1.48,12.4,12.4,0,0,0-4.42.81,10.35,10.35,0,0,0-3.81,2.5,12.07,12.07,0,0,0-2.63,4.2,16.72,16.72,0,0,0-1,6v27.61h-7.44V362.53h7.44v5.72h.35l1.4-1.43a16.65,16.65,0,0,1,6.22-4.25,15.84,15.84,0,0,1,5.69-1q5.78,0,8.93,2a12.85,12.85,0,0,1,4.59,4.74,14.52,14.52,0,0,1,1.71,5.54c.18,1.88.26,3.35.26,4.43v28.95Z"/><path class="cls-1" d="M554.4,366.1v-3.57H562V348.76h7.45v13.77h10.59v3.57H569.46v29.67c0,.72,0,1.54.08,2.46a9.31,9.31,0,0,0,.53,2.59,4.64,4.64,0,0,0,1.36,2,3.76,3.76,0,0,0,2.58.81,4.45,4.45,0,0,0,3.5-1.61,15,15,0,0,0,2.28-3.49l4.11,4.29a13.28,13.28,0,0,1-9.72,4.38,12.77,12.77,0,0,1-4.46-.8,11.12,11.12,0,0,1-3.9-2.46,12.32,12.32,0,0,1-2.76-4.24,16.16,16.16,0,0,1-1-6.08V366.1Z"/><path class="cls-1" d="M588,345a4.58,4.58,0,0,1,6.65,0,4.82,4.82,0,0,1,0,6.79,4.58,4.58,0,0,1-6.65,0,4.82,4.82,0,0,1,0-6.79Zm7.18,17.52v44.68h-7.44V362.53Z"/><path class="cls-1" d="M636.35,400.06H636a10.82,10.82,0,0,1-5.12,6.26,17.69,17.69,0,0,1-8.54,2,19.36,19.36,0,0,1-8.1-1.66A17.88,17.88,0,0,1,608,401.9a22.05,22.05,0,0,1-4.07-7.42,30.65,30.65,0,0,1-1.44-9.7,29.93,29.93,0,0,1,1.44-9.56,21.61,21.61,0,0,1,4.07-7.33,17.83,17.83,0,0,1,6.31-4.69,19.64,19.64,0,0,1,8.14-1.66,17.41,17.41,0,0,1,9.06,2.1A9.73,9.73,0,0,1,636,369.5h.35v-7h7.44v43.88A43.38,43.38,0,0,1,643,415a19.2,19.2,0,0,1-3.11,7.38,15.92,15.92,0,0,1-6.4,5.14,25.72,25.72,0,0,1-10.78,1.92,20.28,20.28,0,0,1-6.4-.94,21.37,21.37,0,0,1-4.82-2.24,20,20,0,0,1-3.33-2.59,20.52,20.52,0,0,1-1.93-2.1l4.77-4.47a24.75,24.75,0,0,0,5.23,6.44A11.21,11.21,0,0,0,623.7,426a15.21,15.21,0,0,0,5-.8,10.13,10.13,0,0,0,4-2.59,12.25,12.25,0,0,0,2.68-4.65,21.78,21.78,0,0,0,1-7Zm0-18.5a22,22,0,0,0-.79-5.9,16.2,16.2,0,0,0-2.33-5,11.58,11.58,0,0,0-3.82-3.49,10.35,10.35,0,0,0-5.18-1.3,16.55,16.55,0,0,0-3.65.58A11.15,11.15,0,0,0,616,369a16.41,16.41,0,0,0-3.91,5.68,24.67,24.67,0,0,0-1.67,10,28.66,28.66,0,0,0,1.37,9.65,15.49,15.49,0,0,0,3.42,5.81,11.13,11.13,0,0,0,4.48,2.82,15,15,0,0,0,4.53.76,10.62,10.62,0,0,0,4.57-1,11.29,11.29,0,0,0,3.86-3,15.15,15.15,0,0,0,2.68-4.83,19.92,19.92,0,0,0,1-6.61Z"/><path class="cls-1" d="M658.5,362.53V392c0,.6.06,1.53.18,2.82a10.49,10.49,0,0,0,1.18,3.88,9,9,0,0,0,8.8,4.92,12.07,12.07,0,0,0,4.38-.81,9.84,9.84,0,0,0,3.67-2.45,12.44,12.44,0,0,0,2.54-4.16,16.49,16.49,0,0,0,1-6v-27.7h7.44v44.68h-7.44v-5.63h-.35l-1.4,1.43a17.18,17.18,0,0,1-6.09,4.25,14.91,14.91,0,0,1-5.56,1q-5.77,0-9-2a13,13,0,0,1-4.69-4.73,14.86,14.86,0,0,1-1.79-5.54,42,42,0,0,1-.31-4.43v-29Z"/><path class="cls-1" d="M700.88,386.84a21.79,21.79,0,0,0,1.57,8.93,15,15,0,0,0,3.93,5.46,13.49,13.49,0,0,0,5.11,2.72,19.36,19.36,0,0,0,5.2.76,14.88,14.88,0,0,0,4-.49,16.5,16.5,0,0,0,3.45-1.39,20.18,20.18,0,0,0,3.27-2.23c1.08-.89,2.23-1.88,3.45-3l2.8,2.86a24,24,0,0,1-8.23,5.76,26,26,0,0,1-10.34,2,23.06,23.06,0,0,1-10-2,20,20,0,0,1-7-5.36,22.71,22.71,0,0,1-4.11-7.59,28.32,28.32,0,0,1-1.36-8.72,27.55,27.55,0,0,1,1.58-9.61,21.25,21.25,0,0,1,4.38-7.23,18.57,18.57,0,0,1,6.56-4.56,21.32,21.32,0,0,1,8.23-1.57,22.3,22.3,0,0,1,8,1.43,18.68,18.68,0,0,1,6.61,4.29,20.33,20.33,0,0,1,4.51,7.24A29.18,29.18,0,0,1,734.06,385v1.88Zm25.48-3.58q0-8.67-3.44-13.63a11,11,0,0,0-9.6-5,9.74,9.74,0,0,0-5.57,1.57,12.36,12.36,0,0,0-3.87,4.15,20.34,20.34,0,0,0-2.26,5.95,32.18,32.18,0,0,0-.74,6.92Z"/><path class="cls-1" d="M777.58,407.21h-7.44V400h-.35q-3.33,8.32-13.66,8.32a19.47,19.47,0,0,1-8.06-1.66,18.29,18.29,0,0,1-6.35-4.73,22.2,22.2,0,0,1-4.15-7.42,29.52,29.52,0,0,1-1.49-9.7,28.84,28.84,0,0,1,1.49-9.56,21.76,21.76,0,0,1,4.15-7.33,18.43,18.43,0,0,1,6.35-4.69A20.07,20.07,0,0,1,760.29,362a15.13,15.13,0,0,1,3.89,1.43,12.65,12.65,0,0,1,3.29,2.55,11.9,11.9,0,0,1,2.32,3.89h.35V344.65h7.44Zm-7.44-25.65a19.62,19.62,0,0,0-1-6.52,15.68,15.68,0,0,0-2.67-4.87,11.17,11.17,0,0,0-3.85-3,10.88,10.88,0,0,0-4.64-1,13.33,13.33,0,0,0-5.17,1,11.28,11.28,0,0,0-4.33,3.31,16.76,16.76,0,0,0-3,5.85A29.86,29.86,0,0,0,744.4,385a29.5,29.5,0,0,0,1.09,8.58,16.92,16.92,0,0,0,2.93,5.81,11.07,11.07,0,0,0,4.29,3.26,13.41,13.41,0,0,0,5.26,1,10.46,10.46,0,0,0,4.77-1.12,12,12,0,0,0,3.85-3,14.88,14.88,0,0,0,2.58-4.56,15.89,15.89,0,0,0,1-5.58Z"/><path class="cls-1" d="M800.94,361.54c4.27,0,7.57.62,9.9,1.84a11.88,11.88,0,0,1,5.13,4.78,16.28,16.28,0,0,1,1.89,6.79q.25,3.84.26,7.86v24.4H811v-4.38a18.19,18.19,0,0,1-6.48,4,22.46,22.46,0,0,1-7.88,1.48A15.74,15.74,0,0,1,790,407a14.77,14.77,0,0,1-4.81-3.49,14.36,14.36,0,0,1-2.89-4.83,15.78,15.78,0,0,1-1-5.45,16.54,16.54,0,0,1,1-5.72,15.57,15.57,0,0,1,3.16-5.14,16.12,16.12,0,0,1,12.17-5.14,18.38,18.38,0,0,1,7.48,1.57,15.1,15.1,0,0,1,5.83,4.42v-3.84q0-7.33-2.16-10.9T801,364.85a13.32,13.32,0,0,0-4.31.63,11.07,11.07,0,0,0-3.3,1.74,14.16,14.16,0,0,0-2.68,2.77,44.23,44.23,0,0,0-2.46,3.71l-4.49-4.65c.82-.89,1.68-1.79,2.58-2.68a14.86,14.86,0,0,1,3.33-2.41,19.71,19.71,0,0,1,4.69-1.75A28.15,28.15,0,0,1,800.94,361.54Zm10.09,28a20.64,20.64,0,0,0-1.28-2.5,14.24,14.24,0,0,0-2.15-2.78,12,12,0,0,0-3.17-2.27A9.51,9.51,0,0,0,800,381a10.58,10.58,0,0,0-4.66,1,11.16,11.16,0,0,0-3.56,2.69,11.82,11.82,0,0,0-2.24,3.88,13.77,13.77,0,0,0-.79,4.65,11.23,11.23,0,0,0,1,5,12,12,0,0,0,2.59,3.58,10.59,10.59,0,0,0,3.52,2.19,10.75,10.75,0,0,0,3.69.71,10,10,0,0,0,3.38-.62,13.2,13.2,0,0,0,3.26-1.75A14.88,14.88,0,0,0,811,396.4Z"/><path class="cls-1" d="M864.26,407.21h-7.44V400h-.35q-3.33,8.32-13.66,8.32a19.5,19.5,0,0,1-8.06-1.66,18.16,18.16,0,0,1-6.34-4.73,22.21,22.21,0,0,1-4.16-7.42,29.52,29.52,0,0,1-1.49-9.7,28.84,28.84,0,0,1,1.49-9.56,21.78,21.78,0,0,1,4.16-7.33,18.3,18.3,0,0,1,6.34-4.69A20.07,20.07,0,0,1,847,362a15.13,15.13,0,0,1,3.89,1.43,12.49,12.49,0,0,1,3.29,2.55,11.9,11.9,0,0,1,2.32,3.89h.35V344.65h7.44Zm-7.44-25.65a19.62,19.62,0,0,0-1-6.52,15.68,15.68,0,0,0-2.67-4.87,11.17,11.17,0,0,0-3.85-3,10.88,10.88,0,0,0-4.64-1,13.36,13.36,0,0,0-5.17,1,11.28,11.28,0,0,0-4.33,3.31,16.76,16.76,0,0,0-3,5.85,29.86,29.86,0,0,0-1.09,8.67,29.5,29.5,0,0,0,1.09,8.58,16.92,16.92,0,0,0,2.93,5.81,11.07,11.07,0,0,0,4.29,3.26,13.41,13.41,0,0,0,5.26,1,10.46,10.46,0,0,0,4.77-1.12,12,12,0,0,0,3.85-3,15.11,15.11,0,0,0,2.59-4.56,16.12,16.12,0,0,0,1-5.58Z"/><path class="cls-1" d="M877.22,386.84a21.79,21.79,0,0,0,1.57,8.93,15,15,0,0,0,3.93,5.46,13.49,13.49,0,0,0,5.11,2.72,19.34,19.34,0,0,0,5.19.76,15,15,0,0,0,4-.49,16.5,16.5,0,0,0,3.45-1.39,20.18,20.18,0,0,0,3.27-2.23c1.08-.89,2.23-1.88,3.45-3l2.8,2.86a24,24,0,0,1-8.23,5.76,26,26,0,0,1-10.34,2,23.06,23.06,0,0,1-10-2,20,20,0,0,1-7-5.36,22.53,22.53,0,0,1-4.11-7.59,28.32,28.32,0,0,1-1.36-8.72,27.55,27.55,0,0,1,1.58-9.61,21.39,21.39,0,0,1,4.37-7.23,18.7,18.7,0,0,1,6.57-4.56,21.28,21.28,0,0,1,8.23-1.57,22.34,22.34,0,0,1,8,1.43,18.68,18.68,0,0,1,6.61,4.29,20.33,20.33,0,0,1,4.51,7.24A29.18,29.18,0,0,1,910.4,385v1.88Zm25.48-3.58q0-8.67-3.44-13.63a11,11,0,0,0-9.61-5,9.73,9.73,0,0,0-5.56,1.57,12.36,12.36,0,0,0-3.87,4.15,20.06,20.06,0,0,0-2.26,5.95,31.56,31.56,0,0,0-.74,6.92Z"/><path class="cls-1" d="M938,372.72a6.06,6.06,0,0,0-.61-2.51,7.18,7.18,0,0,0-1.92-2.45,11.31,11.31,0,0,0-3.23-1.88,12.21,12.21,0,0,0-4.53-.76,10.94,10.94,0,0,0-4.37.76,8.33,8.33,0,0,0-2.79,1.88,6.54,6.54,0,0,0-1.48,2.41,7.71,7.71,0,0,0-.44,2.46,5.13,5.13,0,0,0,2,4.29,18.23,18.23,0,0,0,4.93,2.59c2,.71,4.11,1.4,6.41,2.05a33.83,33.83,0,0,1,6.42,2.55,14.73,14.73,0,0,1,4.93,4.16,11.1,11.1,0,0,1,2,6.88,12.15,12.15,0,0,1-4.07,9.52q-4.08,3.61-12.13,3.62a25,25,0,0,1-7.83-1.12,17.9,17.9,0,0,1-5.7-3,12.27,12.27,0,0,1-3.45-4.24,11.11,11.11,0,0,1-1.14-4.87h5.69a7.4,7.4,0,0,0,.66,2.68,9.87,9.87,0,0,0,2.18,3.17,13.2,13.2,0,0,0,3.94,2.68,14,14,0,0,0,5.92,1.12A12.2,12.2,0,0,0,934,404a8,8,0,0,0,2.88-1.88,5.91,5.91,0,0,0,1.45-2.45,9.32,9.32,0,0,0,.39-2.6,5.88,5.88,0,0,0-1.92-4.64,15.93,15.93,0,0,0-4.8-2.82c-1.92-.74-4-1.43-6.23-2.05a31.44,31.44,0,0,1-6.24-2.46,14.42,14.42,0,0,1-4.8-4,10.92,10.92,0,0,1-1.92-6.8,12.52,12.52,0,0,1,1.13-5.49,11.49,11.49,0,0,1,3.1-4,13.17,13.17,0,0,1,4.63-2.41,19.53,19.53,0,0,1,5.72-.81,21.23,21.23,0,0,1,6.06.85,17.6,17.6,0,0,1,5,2.33,11.16,11.16,0,0,1,3.36,3.53,8.54,8.54,0,0,1,1.22,4.47Z"/><path class="cls-1" d="M418.3,241.71H310.59a13,13,0,0,0-12.93,12.94V419.07A13,13,0,0,0,310.59,432H418.3a13,13,0,0,0,12.94-12.93V254.65A13,13,0,0,0,418.3,241.71Zm8.34,175.57a9.46,9.46,0,0,1-9.44,9.44H311.42a9.47,9.47,0,0,1-9.44-9.44V255.46a9.47,9.47,0,0,1,9.44-9.44H417.2a9.46,9.46,0,0,1,9.44,9.44Z"/><path class="cls-1" d="M417.62,248.61H311.25a6.27,6.27,0,0,0-6.25,6.25V417.57a6.27,6.27,0,0,0,6.25,6.25H417.62a6.27,6.27,0,0,0,6.25-6.25V254.86A6.27,6.27,0,0,0,417.62,248.61ZM423,417.53a5.51,5.51,0,0,1-5.49,5.49H311.18a5.5,5.5,0,0,1-5.48-5.49V255.07a5.5,5.5,0,0,1,5.48-5.49H417.52a5.51,5.51,0,0,1,5.49,5.49Z"/></svg>