<svg id="Capa_1" data-name="Capa 1" xmlns="http://www.w3.org/2000/svg" viewBox="0 0 424.8 328.8"><defs><style>.cls-1{fill:#436064;fill-rule:evenodd;}</style></defs><title>Icono _5</title><path class="cls-1" d="M281.6,218.51a6.45,6.45,0,0,1-6.4,6.41H140a6.48,6.48,0,0,1-6.41-6.41V127.16A6.45,6.45,0,0,1,140,120.8H275.2a6.41,6.41,0,0,1,6.4,6.36Zm-19.82-71c-6.41,0-11.65-4.64-11.65-11a2.13,2.13,0,0,1,.6-1.76H164.49v1.76a10.68,10.68,0,0,1-11.05,11h-2.32v50.6h2.32a10.71,10.71,0,0,1,11.05,11.09V211h86.24a2,2,0,0,1-.6-1.72c0-6.41,5.24-11.09,11.65-11.09h2.37v-50.6ZM204.69,194.7v-5.29a17,17,0,0,1-8.73-2.32l1.16-6.41a21.17,21.17,0,0,0,8.77,2.32c2.88,0,5.2-1.11,5.2-2.87,0-2.32-1.71-3.53-5.2-4.64-5.84-1.77-9.93-4.69-9.93-9.94,0-4.64,3.53-8.12,8.73-8.73v-5.19h5.24v4.64a26.17,26.17,0,0,1,8.17,1.16l-1.76,6.4a17.55,17.55,0,0,0-7.57-1.71c-3.48,0-4.64,1.71-4.64,2.87,0,1.77,1.76,2.88,6.41,4.64,6.4,1.77,8.72,4.65,8.72,9.94,0,4-3.48,8.08-9.33,9.29v5.84Zm34.39-22.18c0,18.1-14,32-31.47,32s-31.47-13.92-31.47-32c0-16.81,14-30.83,31.47-30.83s31.47,14,31.47,30.83Zm32,37.27a6.24,6.24,0,0,1-5.8,5.8H149.91a6.25,6.25,0,0,1-5.8-5.8V135.94c0-3,2.93-5.29,5.8-5.29h115.4c2.88,0,5.8,2.32,5.8,5.29Z"/></svg>