<svg id="Capa_1" data-name="Capa 1" xmlns="http://www.w3.org/2000/svg" viewBox="0 0 424.8 328.8"><defs><style>.cls-1{fill:#436064;fill-rule:evenodd;}</style></defs><title>Icono _4</title><path class="cls-1" d="M300.48,222.2V124.26a7.74,7.74,0,0,0-7.75-7.68H190c-3.91,0-7,3.85-7,7.68v44.39h-6.94V147.57H131.7l-15.56,39.67v10.91c-1.61,0-3.16,1.49-3.16,3.84v4.71h-.74v15.5c-2.36.8-3.1,2.35-3.1,4.71a5.06,5.06,0,0,0,4.65,4.65h19.52v-.81c0-5.45,3-10.1,6.14-14h0c3.91-3.85,8.55-6.2,14-6.2a21.48,21.48,0,0,1,14.81,6.2h0c3.1,3.9,5.39,8.55,5.39,14v.81H243v-.81c0-5.45,2.3-10.1,6.2-14a18.4,18.4,0,0,1,14-6.2c5.45,0,10.1,2.35,14,6.2s5.39,8.55,5.39,14h0v.81h18.72c3.09,0,5.45-2.36,5.45-4.65s-2.36-4.71-5.45-4.71Zm-127.62,8.55c0,10.1-8.55,18.66-19.4,18.66a18.63,18.63,0,1,1,0-37.25c10.85,0,19.4,8.49,19.4,18.59Zm95.76,0a5.46,5.46,0,1,1-5.45-5.45,5.34,5.34,0,0,1,5.45,5.45Zm13.2,0a18.92,18.92,0,0,1-18.65,18.66c-10.85,0-19.47-8.56-19.47-18.66s8.62-18.59,19.47-18.59a18.86,18.86,0,0,1,18.65,18.59Zm-8.55,0a9.8,9.8,0,0,1-10.1,10.1c-6.26,0-10.85-3.9-10.85-10.1,0-5.45,4.59-10.1,10.85-10.1a10.27,10.27,0,0,1,10.1,10.1Zm-114.3,0a5.39,5.39,0,0,1-5.51,5.45c-3,0-4.65-2.35-4.65-5.45s1.61-5.45,4.65-5.45a5.39,5.39,0,0,1,5.51,5.45Zm5.34,0c0,6.2-4.59,10.1-10.85,10.1a9.79,9.79,0,0,1-10.1-10.1,10.26,10.26,0,0,1,10.1-10.1c6.26,0,10.85,4.65,10.85,10.1ZM169,153.84H134.8l-11.65,33.4h30.31v-7H169Zm120.61-15.56c0,3.09-2.35,6.25-5.45,6.25H209.49a6.73,6.73,0,0,1-6.26-6.25c.81-3.11,3.1-5.46,6.26-5.46h74.69a5.34,5.34,0,0,1,5.45,5.46Zm0,25.65a5.34,5.34,0,0,1-5.45,5.46H209.49c-3.16,0-6.26-2.35-6.26-5.46.81-3.09,3.1-6.2,6.26-6.2h74.69c3.1,0,5.45,3.11,5.45,6.2Z"/></svg>