<svg id="Capa_1" data-name="Capa 1" xmlns="http://www.w3.org/2000/svg" viewBox="0 0 1172.57 665.14"><defs><style>.cls-1{fill:#eae9db;}</style></defs><title>sello_3</title><path class="cls-1" d="M470.06,373.63l.9,66.27H485q0-29.34,0-58.68a30.61,30.61,0,0,1-15-7.59Z"/><path class="cls-1" d="M538.39,370.25A69.35,69.35,0,0,1,520,373.07,58.81,58.81,0,0,1,494,368.36a55.77,55.77,0,0,1-18.81-13.68,58.37,58.37,0,0,1-11.39-19.77,71.07,71.07,0,0,1-3.86-23.37A66.6,66.6,0,0,1,464,287.87a55,55,0,0,1,11.38-18.53,52.42,52.42,0,0,1,17.41-12.16,54.59,54.59,0,0,1,21.93-4.37,53.76,53.76,0,0,1,14.77,1.9,51.23,51.23,0,0,1,11.86,4.94,32.59,32.59,0,0,1,8.47,6.94,24,24,0,0,1,4.61,7.88h13.93a53.4,53.4,0,0,0-7.25-12,41.63,41.63,0,0,0-11-9.5,57.38,57.38,0,0,0-15.43-6.27,80.91,80.91,0,0,0-20.14-2.29,89.06,89.06,0,0,0-29.83,4.76,66.2,66.2,0,0,0-23.06,13.59,60.59,60.59,0,0,0-14.86,21.28,70.64,70.64,0,0,0-5.27,27.84,81.27,81.27,0,0,0,4.23,25.95,62.9,62.9,0,0,0,13.08,22.42,64.72,64.72,0,0,0,22.58,15.78c12.61,5.5,23.45,5.75,32.75,6a116.44,116.44,0,0,0,24.63-2C538.62,376.78,538.5,373.51,538.39,370.25Z"/><path class="cls-1" d="M565.48,355.24c-.75.83-1.57,1.69-2.47,2.55a49.38,49.38,0,0,1-3.86,3.35c.05,3.71.11,7.42.16,11.14q2.41-2.32,4.86-4.77,3.6-3.58,7-7.13Z"/><path class="cls-1" d="M545.13,302.62q-10.65-10.85-31.76-10.85-20.89,0-31.65,10.85c-8.05,8.12-9.28,20.25-10.76,31.56a93.82,93.82,0,0,0-.73,9.41,88.55,88.55,0,0,0,6.41,8.27,92,92,0,0,0,8.51,8.57c-.06-5.38-.12-12.92-.12-22.23A65.86,65.86,0,0,1,486.34,324a29.34,29.34,0,0,1,4.52-10.95,21,21,0,0,1,8.75-7.14,33.31,33.31,0,0,1,13.76-2.51q8.25,0,13.67,2.51a21.78,21.78,0,0,1,8.74,7.14A28.36,28.36,0,0,1,540.41,324a70.56,70.56,0,0,1,1.3,14.17v33.68a97.56,97.56,0,0,1,.94,15.82,97.56,97.56,0,0,0-.94-15.82v68h14.07V334Q555.78,313.49,545.13,302.62Z"/><path class="cls-1" d="M465.39,212.48a7.19,7.19,0,0,1-2.59,1.58c-3,1.14-5.93.13-7.26-3.32a5.63,5.63,0,0,1,3.36-7.66,6,6,0,0,1,2.69-.49l.1,1.23a5.39,5.39,0,0,0-2.29.38c-2.48,1-3.51,3.17-2.44,5.93,1,2.58,3.12,3.67,5.68,2.68a5.88,5.88,0,0,0,2.06-1.3Z"/><path class="cls-1" d="M472.72,206.28a4,4,0,0,1-2.58,5.3,3.86,3.86,0,0,1-4.95-2.84,4,4,0,0,1,2.57-5.29A3.83,3.83,0,0,1,472.72,206.28Zm-6.12,2c.52,1.69,1.9,2.67,3.27,2.25s2-2,1.42-3.74c-.4-1.31-1.57-2.77-3.23-2.26S466.15,206.79,466.6,208.26Z"/><path class="cls-1" d="M474.24,204c-.19-.81-.35-1.48-.55-2.11l1.26-.29.34,1.26h.06a2.78,2.78,0,0,1,2.14-2,2.4,2.4,0,0,1,2.59,1.08h0a3.3,3.3,0,0,1,.65-1.22,2.75,2.75,0,0,1,1.61-.94c1-.24,2.75.1,3.36,2.83l1,4.64-1.4.31-1-4.46c-.34-1.51-1.1-2.29-2.26-2a1.87,1.87,0,0,0-1.39,1.68,2.11,2.11,0,0,0,0,.74l1.1,4.86-1.4.32-1.06-4.72c-.29-1.25-1-2-2.13-1.8a2,2,0,0,0-1.46,1.83,2.25,2.25,0,0,0,.05.73l1.07,4.75-1.4.32Z"/><path class="cls-1" d="M488.23,201.5c-.14-1-.29-1.85-.43-2.61l1.31-.17.25,1.36h0a3.17,3.17,0,0,1,2.63-2c1.94-.27,3.61,1.17,4,3.6.39,2.88-1.16,4.54-3,4.8a2.84,2.84,0,0,1-2.64-.91h0l.6,4.35-1.43.2Zm1.73,1.94a3.07,3.07,0,0,0,.15.58,2.26,2.26,0,0,0,2.42,1.41c1.53-.22,2.26-1.6,2-3.44-.22-1.6-1.25-2.86-2.79-2.64a2.33,2.33,0,0,0-1.95,2.1,2.48,2.48,0,0,0,0,.61Z"/><path class="cls-1" d="M497.73,200.21c-.08-1-.16-1.77-.27-2.51l1.28-.1.18,1.57H499a2.43,2.43,0,0,1,2.09-1.95,1.45,1.45,0,0,1,.42,0l.11,1.39a1.64,1.64,0,0,0-.5,0,2.06,2.06,0,0,0-1.81,2,3.89,3.89,0,0,0,0,.69l.35,4.29-1.44.12Z"/><path class="cls-1" d="M508,205.14l-.15-1h-.05a3,3,0,0,1-2.43,1.3,2.32,2.32,0,0,1-2.57-2.23c-.07-2,1.63-3.09,4.75-3.2v-.16a1.67,1.67,0,0,0-1.91-1.81,4.1,4.1,0,0,0-2.09.69l-.36-1a5,5,0,0,1,2.63-.82c2.47-.1,3.14,1.57,3.2,3.19l.11,3a11.75,11.75,0,0,0,.21,1.93Zm-.37-4.12c-1.61,0-3.42.38-3.36,2a1.3,1.3,0,0,0,1.44,1.35,2,2,0,0,0,1.91-1.43,1.52,1.52,0,0,0,.06-.47Z"/><path class="cls-1" d="M511.57,199.1c0-.83,0-1.52,0-2.19l1.29.05,0,1.31h.05a2.76,2.76,0,0,1,2.6-1.39,2.39,2.39,0,0,1,2.23,1.71h0a3.45,3.45,0,0,1,.94-1,2.8,2.8,0,0,1,1.82-.5c1.07,0,2.63.8,2.52,3.61l-.18,4.77-1.44-.06.18-4.58c.06-1.55-.48-2.51-1.66-2.56a1.9,1.9,0,0,0-1.79,1.27,2.31,2.31,0,0,0-.15.73l-.19,5-1.44-.06.19-4.85c0-1.29-.49-2.25-1.61-2.29a2,2,0,0,0-1.88,1.4,2.14,2.14,0,0,0-.14.72l-.19,4.88-1.44-.05Z"/><path class="cls-1" d="M532.94,202.56a4,4,0,0,1-4.51,3.77,3.85,3.85,0,0,1-3.34-4.59,3.94,3.94,0,0,1,4.49-3.77A3.82,3.82,0,0,1,532.94,202.56Zm-6.37-.69c-.21,1.75.64,3.2,2.06,3.37s2.59-1,2.81-2.81c.17-1.36-.3-3.16-2-3.37S526.76,200.35,526.57,201.87Z"/><path class="cls-1" d="M534.11,205.41a3.87,3.87,0,0,0,1.81.92c1.05.19,1.64-.25,1.76-.91s-.23-1.14-1.23-1.73c-1.34-.76-1.87-1.67-1.7-2.63a2.49,2.49,0,0,1,3.16-1.84,3.92,3.92,0,0,1,1.87.84l-.55,1a3.1,3.1,0,0,0-1.54-.74,1.18,1.18,0,0,0-1.53.84c-.12.66.31,1,1.28,1.62,1.28.77,1.87,1.59,1.66,2.78-.25,1.39-1.51,2.19-3.41,1.85a4.59,4.59,0,0,1-2.14-.94Z"/><path class="cls-1" d="M546.44,205.87l-2,3.13-1.46-.38,6.6-9.92,1.7.45.83,11.89-1.51-.4-.25-3.74Zm3.87-.15-.24-3.42c-.05-.78,0-1.47,0-2.14h0c-.33.6-.68,1.22-1.07,1.83L547,204.85Z"/><path class="cls-1" d="M555.36,205.94c.27-.79.47-1.44.64-2.09l1.24.42-.36,1.29h0a3,3,0,0,1,3-.57c1.06.36,2.49,1.55,1.59,4.18L560,213.75l-1.39-.48,1.5-4.41c.42-1.23.32-2.42-1-2.86a2.08,2.08,0,0,0-2.35.78,2.12,2.12,0,0,0-.32.62l-1.57,4.6-1.39-.47Z"/><path class="cls-1" d="M567.53,205.56l-.86,2.16,2,.78-.42,1-2-.78-1.63,4.05c-.37.93-.32,1.57.44,1.87a3.43,3.43,0,0,0,.83.23l-.35,1.05a3.63,3.63,0,0,1-1.28-.3,2.05,2.05,0,0,1-1.25-1.17,3,3,0,0,1,.26-2.17l1.64-4.1-1.17-.46.42-1,1.16.46.73-1.8Z"/><path class="cls-1" d="M567.06,216.68l3.28-7.39,1.34.59-3.27,7.39Zm5.69-8.8a.86.86,0,0,1-1.21.44.87.87,0,0,1-.45-1.18.89.89,0,0,1,1.21-.47A.86.86,0,0,1,572.75,207.88Z"/><path class="cls-1" d="M580.4,214.13c-.29.51-.61,1.08-1.06,2l-2.1,4.18c-.84,1.66-1.67,2.5-2.68,2.78a4.28,4.28,0,0,1-3.06-.46,5.09,5.09,0,0,1-2.1-1.8l.83-.83a4.51,4.51,0,0,0,1.83,1.63c1.34.67,2.68.47,3.59-1.35l.4-.81h0a2.88,2.88,0,0,1-2.9.05c-1.79-.9-2.3-3.06-1.3-5.06,1.23-2.44,3.53-3,5.18-2.19a2.7,2.7,0,0,1,1.62,2.38l0,0,.6-1.06Zm-2.78,2.17a2,2,0,0,0,.22-.64,2.11,2.11,0,0,0-1.14-2.3c-1.25-.63-2.68,0-3.51,1.65-.72,1.41-.59,3,.82,3.66a2.15,2.15,0,0,0,2.49-.43,2.26,2.26,0,0,0,.46-.65Z"/><path class="cls-1" d="M585.64,223.86c-.43.72-.78,1.36-1.06,1.94l-1.13-.66.6-1.18,0,0a3.05,3.05,0,0,1-3.07,0c-1.09-.64-2.06-2-.63-4.47l2.38-4.09,1.27.75L581.72,220c-.78,1.33-.89,2.46.27,3.14a2.12,2.12,0,0,0,2.34-.18,2.44,2.44,0,0,0,.5-.59l2.5-4.29,1.26.75Z"/><path class="cls-1" d="M589.2,224.3a2.6,2.6,0,0,0,.74,3.88,5.47,5.47,0,0,0,2.1.91l-.38,1a6.61,6.61,0,0,1-2.52-1.08,3.76,3.76,0,0,1-1-5.61c1.36-2,3.63-2.83,5.59-1.51,2.19,1.47,1.48,3.79.65,5a4.77,4.77,0,0,1-.43.54Zm4.17,1.53a2.09,2.09,0,0,0-.36-3.12,2.42,2.42,0,0,0-3.2.73Z"/><path class="cls-1" d="M606,226.46,600,234.21c-.44.57-.92,1.23-1.22,1.7l-1-.8.79-1.15,0,0a3,3,0,0,1-3.15-.41c-1.55-1.19-1.74-3.41-.25-5.36,1.62-2.15,4-2.44,5.51-1.24a2.71,2.71,0,0,1,1.19,2.46l0,0,2.93-3.83Zm-5.45,4.71a2.34,2.34,0,0,0,.32-.53,2.15,2.15,0,0,0-.65-2.64c-1.21-.92-2.73-.41-3.82,1s-1.18,2.86.08,3.82a2.2,2.2,0,0,0,2.77-.08,2.41,2.41,0,0,0,.44-.46Z"/><path class="cls-1" d="M604.05,240.4l.58-.85,0,0a3,3,0,0,1-2.65-.71,2.31,2.31,0,0,1-.35-3.38c1.29-1.47,3.3-1.14,5.65.92l.11-.12a1.67,1.67,0,0,0-.16-2.62,4.15,4.15,0,0,0-2-.93l.38-.95a5.05,5.05,0,0,1,2.48,1.2c1.86,1.63,1.21,3.3.14,4.52l-2,2.28a11.89,11.89,0,0,0-1.17,1.55Zm2.54-3.26c-1.18-1.08-2.75-2.06-3.78-.88a1.3,1.3,0,0,0,.13,2,2,2,0,0,0,2.37.26,1.48,1.48,0,0,0,.36-.29Z"/><path class="cls-1" d="M619.84,239.11,613,246.06c-.5.52-1.06,1.11-1.41,1.54l-.94-.93.94-1,0,0a3,3,0,0,1-3.07-.8c-1.39-1.37-1.3-3.6.42-5.34,1.87-1.93,4.21-1.93,5.62-.55a2.69,2.69,0,0,1,.87,2.58l0,0,3.38-3.44Zm-6,4a2.67,2.67,0,0,0,.38-.49,2.16,2.16,0,0,0-.32-2.7c-1.08-1.06-2.66-.74-3.91.53s-1.52,2.69-.39,3.8a2.2,2.2,0,0,0,2.76.26,2.6,2.6,0,0,0,.49-.4Z"/><path class="cls-1" d="M616.47,247.33a2.59,2.59,0,0,0-.24,3.93,5.19,5.19,0,0,0,1.81,1.39l-.61.89a6.55,6.55,0,0,1-2.17-1.67,3.74,3.74,0,0,1,.38-5.68c1.81-1.62,4.2-1.84,5.77-.09,1.76,2,.5,4-.6,5a4.48,4.48,0,0,1-.55.42Zm3.66,2.5a2.09,2.09,0,0,0,.42-3.11,2.42,2.42,0,0,0-3.28-.08Z"/><path class="cls-1" d="M619.56,254.28a3.83,3.83,0,0,0,.77,1.87c.67.83,1.4.89,1.92.47s.58-1,.21-2.11c-.51-1.45-.32-2.49.43-3.1a2.5,2.5,0,0,1,3.6.68,3.89,3.89,0,0,1,.86,1.86l-1.06.38a3.18,3.18,0,0,0-.68-1.58,1.17,1.17,0,0,0-1.7-.35c-.52.42-.45,1-.1,2,.47,1.43.37,2.43-.56,3.19-1.1.89-2.58.66-3.79-.83a4.71,4.71,0,0,1-1-2.11Z"/><path class="cls-1" d="M643.07,297.81a7.32,7.32,0,0,1-1.57-2.57c-1.14-2.95-.14-5.9,3.29-7.23a5.59,5.59,0,0,1,7.63,3.33,6.05,6.05,0,0,1,.49,2.67l-1.22.1a5.4,5.4,0,0,0-.39-2.28c-.95-2.46-3.16-3.48-5.91-2.41-2.56,1-3.64,3.11-2.65,5.66a6,6,0,0,0,1.29,2Z"/><path class="cls-1" d="M649.31,305.12a4,4,0,0,1-5.3-2.54,3.84,3.84,0,0,1,2.8-4.94,3.93,3.93,0,0,1,5.29,2.52A3.83,3.83,0,0,1,649.31,305.12Zm-2-6.09c-1.69.54-2.65,1.91-2.22,3.28s2,1.94,3.73,1.39c1.3-.41,2.75-1.59,2.23-3.24S648.76,298.57,647.3,299Z"/><path class="cls-1" d="M651.57,306.49c.81-.19,1.48-.35,2.12-.55l.28,1.25-1.26.36,0,0a2.8,2.8,0,0,1,2,2.15,2.39,2.39,0,0,1-1.08,2.58v0a3.16,3.16,0,0,1,1.22.65,2.71,2.71,0,0,1,1,1.61c.23,1-.11,2.74-2.84,3.35l-4.64,1-.31-1.4,4.46-1c1.51-.34,2.3-1.1,2-2.25a1.92,1.92,0,0,0-1.69-1.41,2.42,2.42,0,0,0-.74.05l-4.86,1.1-.31-1.41,4.72-1.05c1.25-.29,2-1,1.79-2.13a2,2,0,0,0-1.84-1.45,1.78,1.78,0,0,0-.72,0l-4.75,1.06-.31-1.39Z"/><path class="cls-1" d="M654.07,320.47c1-.14,1.84-.29,2.6-.43l.19,1.31-1.37.25v0a3.17,3.17,0,0,1,2,2.63c.27,1.93-1.17,3.61-3.6,4-2.87.4-4.54-1.16-4.8-3.05a2.82,2.82,0,0,1,.91-2.63v0l-4.35.6-.2-1.43Zm-1.93,1.73a3.51,3.51,0,0,0-.6.15,2.25,2.25,0,0,0-1.39,2.42c.21,1.54,1.59,2.26,3.42,2,1.61-.22,2.86-1.25,2.65-2.79a2.34,2.34,0,0,0-2.1-2,2.14,2.14,0,0,0-.62,0Z"/><path class="cls-1" d="M655.41,330.14c1-.08,1.76-.17,2.51-.29l.11,1.28-1.58.19v.07a2.41,2.41,0,0,1,2,2.07,1.44,1.44,0,0,1,0,.42L657,334a2.05,2.05,0,0,0-2-2.3,4,4,0,0,0-.69,0l-4.29.37-.13-1.44Z"/><path class="cls-1" d="M650.47,340.46l1-.16v-.05a3,3,0,0,1-1.3-2.43,2.3,2.3,0,0,1,2.23-2.56c2-.08,3.1,1.62,3.2,4.75h.17a1.67,1.67,0,0,0,1.8-1.91,4,4,0,0,0-.69-2.08l1-.38a5,5,0,0,1,.82,2.64c.1,2.47-1.57,3.14-3.19,3.2l-3,.11a10.8,10.8,0,0,0-1.93.22Zm4.13-.38c0-1.61-.38-3.42-2-3.36a1.3,1.3,0,0,0-1.35,1.44,2,2,0,0,0,1.43,1.91,1.52,1.52,0,0,0,.47.06Z"/><path class="cls-1" d="M656.53,344c.83,0,1.52,0,2.19,0l0,1.29h-1.31v.05a2.78,2.78,0,0,1,1.4,2.6,2.39,2.39,0,0,1-1.71,2.23v0a3.28,3.28,0,0,1,1,.95,2.81,2.81,0,0,1,.49,1.81c0,1.07-.8,2.63-3.61,2.52l-4.77-.18.06-1.44,4.58.18c1.56.06,2.52-.47,2.56-1.66a1.9,1.9,0,0,0-1.27-1.79,2.25,2.25,0,0,0-.73-.15l-5-.19.06-1.44,4.85.19c1.29,0,2.25-.49,2.29-1.61a2,2,0,0,0-1.4-1.87,1.88,1.88,0,0,0-.71-.15l-4.89-.19.06-1.44Z"/><path class="cls-1" d="M653.14,365.21a4,4,0,0,1-3.79-4.52,3.86,3.86,0,0,1,4.61-3.36,4,4,0,0,1,3.79,4.51A3.84,3.84,0,0,1,653.14,365.21Zm.69-6.4c-1.76-.21-3.22.64-3.39,2.07s1,2.61,2.83,2.83c1.36.16,3.18-.31,3.39-2S655.36,359,653.83,358.81Z"/><path class="cls-1" d="M650.26,366.56a3.79,3.79,0,0,0-.92,1.8c-.19,1.06.25,1.64.91,1.76s1.14-.22,1.73-1.22c.76-1.34,1.67-1.88,2.62-1.71a2.49,2.49,0,0,1,1.85,3.16,4,4,0,0,1-.84,1.88l-1-.55a3.18,3.18,0,0,0,.76-1.55,1.18,1.18,0,0,0-.86-1.52c-.65-.12-1,.3-1.61,1.27-.77,1.29-1.59,1.87-2.77,1.66-1.4-.25-2.2-1.51-1.87-3.4a4.65,4.65,0,0,1,1-2.14Z"/><path class="cls-1" d="M649.81,378.9l-3.13-2,.39-1.45L657,382l-.45,1.7-11.89.82.41-1.5,3.73-.26Zm.15,3.86,3.42-.23c.78-.06,1.47,0,2.14,0v0c-.6-.33-1.22-.69-1.83-1.07l-2.87-1.91Z"/><path class="cls-1" d="M649.77,387.81c.79.28,1.44.48,2.09.65l-.42,1.23-1.29-.35v0a3,3,0,0,1,.57,3c-.36,1.06-1.55,2.49-4.18,1.6L642,392.43l.48-1.4,4.41,1.51c1.23.42,2.41.31,2.86-1a2.08,2.08,0,0,0-.79-2.35,2.31,2.31,0,0,0-.61-.32l-4.6-1.57.48-1.39Z"/><path class="cls-1" d="M650.16,400l-2.17-.87-.77,2-1-.42.77-1.95-4.05-1.63c-.93-.37-1.57-.32-1.87.45a3.21,3.21,0,0,0-.22.83l-1-.35a3.31,3.31,0,0,1,.3-1.29,2,2,0,0,1,1.16-1.25,3.07,3.07,0,0,1,2.17.26l4.1,1.64.47-1.16,1,.41-.46,1.17,1.8.72Z"/><path class="cls-1" d="M639.05,399.54l7.39,3.27-.6,1.34-7.39-3.27Zm8.8,5.69a.91.91,0,0,1,.73-1.67.89.89,0,0,1,.47,1.21A.87.87,0,0,1,647.85,405.23Z"/><path class="cls-1" d="M641.78,412.69c-.51-.29-1.08-.61-2-1.05l-4.21-2.08c-1.66-.82-2.52-1.65-2.8-2.67a4.32,4.32,0,0,1,.43-3.07,5.26,5.26,0,0,1,1.8-2.11l.84.82a4.66,4.66,0,0,0-1.63,1.85c-.66,1.35-.45,2.69,1.38,3.59l.81.4,0,0a2.89,2.89,0,0,1-.08-2.91c.89-1.8,3.06-2.33,5.07-1.34,2.45,1.21,3.06,3.51,2.23,5.17a2.68,2.68,0,0,1-2.37,1.64v0l1.06.6Zm-2.19-2.78a2.16,2.16,0,0,0,2.94-.94c.62-1.25,0-2.68-1.68-3.51-1.42-.7-3-.57-3.67.86a2.16,2.16,0,0,0,.45,2.49,2.53,2.53,0,0,0,.65.45Z"/><path class="cls-1" d="M631.88,418.12c-.73-.42-1.37-.78-1.94-1.06l.65-1.12,1.18.59,0,0a3.06,3.06,0,0,1,.05-3.07c.64-1.1,2-2.05,4.47-.63l4.08,2.38-.74,1.28-3.87-2.26c-1.33-.77-2.46-.89-3.13.27a2.1,2.1,0,0,0,.18,2.34,2.21,2.21,0,0,0,.58.5l4.29,2.49-.74,1.28Z"/><path class="cls-1" d="M631.45,421.69a2.6,2.6,0,0,0-3.88.74,5.18,5.18,0,0,0-.9,2.09l-1-.38a6.42,6.42,0,0,1,1.08-2.51,3.76,3.76,0,0,1,5.61-1c2,1.37,2.82,3.63,1.51,5.59-1.48,2.2-3.8,1.49-5,.66a5.09,5.09,0,0,1-.55-.43Zm-1.52,4.17a2.1,2.1,0,0,0,3.12-.36,2.44,2.44,0,0,0-.73-3.21Z"/><path class="cls-1" d="M629.3,438.47l-7.75-5.94c-.57-.44-1.23-.92-1.7-1.21l.8-1.05,1.16.8v0a3,3,0,0,1,.42-3.15c1.19-1.55,3.41-1.74,5.36-.25,2.14,1.62,2.44,3.95,1.24,5.52a2.68,2.68,0,0,1-2.46,1.18l0,0,3.83,2.93ZM624.59,433a2.34,2.34,0,0,0,.53.32,2.15,2.15,0,0,0,2.64-.65c.92-1.2.41-2.73-1-3.81s-2.86-1.19-3.82.07a2.22,2.22,0,0,0,.08,2.78,3.24,3.24,0,0,0,.46.44Z"/><path class="cls-1" d="M615.51,436.4l.85.58,0,0a3,3,0,0,1,.71-2.66,2.3,2.3,0,0,1,3.38-.34c1.48,1.28,1.15,3.3-.92,5.64l.12.11a1.67,1.67,0,0,0,2.62-.16,3.89,3.89,0,0,0,.93-2l.95.38a5,5,0,0,1-1.2,2.48c-1.62,1.87-3.29,1.22-4.51.15l-2.28-2a12.45,12.45,0,0,0-1.55-1.16Zm3.26,2.54c1.08-1.19,2.06-2.75.87-3.78a1.3,1.3,0,0,0-2,.12,2,2,0,0,0-.26,2.37,1.57,1.57,0,0,0,.3.37Z"/><path class="cls-1" d="M616.88,452.24l-7-6.84c-.51-.5-1.11-1.07-1.54-1.42l.92-.94,1.06.93,0,0a3,3,0,0,1,.79-3.09c1.37-1.4,3.61-1.32,5.37.4,1.94,1.87,2,4.23.57,5.64a2.67,2.67,0,0,1-2.59.88l0,0,3.46,3.38Zm-4-6a2.57,2.57,0,0,0,.49.38,2.17,2.17,0,0,0,2.71-.32c1.06-1.09.74-2.67-.54-3.93s-2.71-1.52-3.82-.38a2.22,2.22,0,0,0-.25,2.77,2.65,2.65,0,0,0,.41.5Z"/><path class="cls-1" d="M608.62,448.85a2.6,2.6,0,0,0-3.94-.24,5.56,5.56,0,0,0-1.39,1.81l-.89-.62a6.44,6.44,0,0,1,1.67-2.16,3.75,3.75,0,0,1,5.68.37c1.63,1.82,1.84,4.21.08,5.78-2,1.76-4,.5-5-.6a5.83,5.83,0,0,1-.42-.55Zm-2.51,3.66a2.09,2.09,0,0,0,3.11.42,2.46,2.46,0,0,0,.09-3.29Z"/><path class="cls-1" d="M601.52,452.09a3.88,3.88,0,0,0-1.88.76c-.83.68-.88,1.41-.46,1.92s1,.59,2.11.22c1.45-.52,2.48-.32,3.1.43.82,1,.67,2.5-.68,3.6a4.09,4.09,0,0,1-1.86.86l-.39-1.06a3.2,3.2,0,0,0,1.58-.68,1.18,1.18,0,0,0,.36-1.71c-.42-.52-1-.45-2-.1-1.43.47-2.43.38-3.19-.56-.89-1.1-.66-2.57.83-3.78a4.56,4.56,0,0,1,2.11-1Z"/><path class="cls-1" d="M561.38,474.44a7.09,7.09,0,0,1,2.54-1.65c2.93-1.24,5.92-.31,7.36,3.1a5.64,5.64,0,0,1-3.15,7.76,6.14,6.14,0,0,1-2.66.57l-.14-1.23a5.37,5.37,0,0,0,2.28-.45c2.45-1,3.41-3.27,2.27-6-1.08-2.55-3.23-3.57-5.76-2.51a6.19,6.19,0,0,0-2,1.35Z"/><path class="cls-1" d="M554.27,480.82a3.94,3.94,0,0,1,2.42-5.36,3.85,3.85,0,0,1,5,2.69,4,4,0,0,1-2.41,5.35A3.83,3.83,0,0,1,554.27,480.82Zm6-2.15c-.57-1.67-2-2.61-3.32-2.14s-1.9,2-1.32,3.76c.45,1.29,1.65,2.72,3.3,2.16S560.81,480.13,560.31,478.67Z"/><path class="cls-1" d="M552.83,483.21c.21.81.39,1.47.6,2.1l-1.24.32-.38-1.25,0,0a2.79,2.79,0,0,1-2.09,2.06,2.4,2.4,0,0,1-2.62-1h0a3.28,3.28,0,0,1-.62,1.24,2.72,2.72,0,0,1-1.59,1c-1,.27-2.74,0-3.44-2.74l-1.17-4.61,1.4-.36,1.12,4.44c.38,1.5,1.16,2.27,2.32,2a1.93,1.93,0,0,0,1.35-1.72,2.44,2.44,0,0,0-.07-.74l-1.23-4.84,1.39-.36,1.19,4.7c.32,1.24,1.1,2,2.18,1.73a2.2,2.2,0,0,0,1.34-2.59l-1.2-4.73,1.39-.35Z"/><path class="cls-1" d="M539,486.05c.17,1,.34,1.83.5,2.59l-1.3.21-.3-1.35h0a3.16,3.16,0,0,1-2.57,2c-1.93.32-3.65-1.07-4-3.48-.47-2.86,1-4.57,2.91-4.88a2.82,2.82,0,0,1,2.66.84h0l-.72-4.32,1.43-.24Zm-1.79-1.89a3.28,3.28,0,0,0-.16-.58,2.26,2.26,0,0,0-2.45-1.33c-1.54.26-2.21,1.65-1.91,3.48.26,1.6,1.33,2.82,2.86,2.57a2.35,2.35,0,0,0,1.89-2.16,2.49,2.49,0,0,0,0-.61Z"/><path class="cls-1" d="M529.34,487.67c.11.95.21,1.76.35,2.5l-1.28.14-.23-1.57h-.07a2.4,2.4,0,0,1-2,2,1.47,1.47,0,0,1-.42,0l-.15-1.38a2.86,2.86,0,0,0,.5,0,2.06,2.06,0,0,0,1.76-2.09,4,4,0,0,0,0-.69l-.47-4.29,1.44-.16Z"/><path class="cls-1" d="M519,483l.19,1h0a3,3,0,0,1,2.39-1.36,2.31,2.31,0,0,1,2.61,2.15c.13,1.95-1.53,3.13-4.64,3.32v.16a1.66,1.66,0,0,0,1.95,1.75,4.09,4.09,0,0,0,2.06-.74l.4.94a5,5,0,0,1-2.6.89c-2.46.16-3.18-1.48-3.28-3.09l-.2-3a11.29,11.29,0,0,0-.26-1.92Zm.49,4.09c1.6-.07,3.39-.47,3.29-2a1.31,1.31,0,0,0-1.48-1.31,2,2,0,0,0-1.85,1.48,1.26,1.26,0,0,0-.05.47Z"/><path class="cls-1" d="M515.56,489.17c0,.84,0,1.52,0,2.19l-1.29,0,0-1.3h-.06a2.75,2.75,0,0,1-2.56,1.45,2.41,2.41,0,0,1-2.27-1.66h0a3.14,3.14,0,0,1-.92,1,2.78,2.78,0,0,1-1.8.54c-1.07,0-2.65-.75-2.6-3.56l.08-4.76,1.43,0-.07,4.58c0,1.56.53,2.51,1.72,2.52a1.9,1.9,0,0,0,1.76-1.3,2.72,2.72,0,0,0,.13-.74l.08-5,1.44,0-.08,4.85c0,1.29.53,2.24,1.65,2.26a2.21,2.21,0,0,0,2-2.16l.08-4.89,1.43,0Z"/><path class="cls-1" d="M494.27,486.31a4,4,0,0,1,4.41-3.9,3.84,3.84,0,0,1,3.47,4.5,3.94,3.94,0,0,1-4.39,3.9A3.83,3.83,0,0,1,494.27,486.31Zm6.4.51c.16-1.76-.73-3.19-2.16-3.32s-2.57,1.09-2.74,2.9c-.13,1.36.39,3.16,2.13,3.32S500.52,488.35,500.67,486.82Z"/><path class="cls-1" d="M493,483.5a3.9,3.9,0,0,0-1.84-.87c-1.06-.15-1.63.3-1.73,1s.25,1.14,1.27,1.7c1.36.73,1.92,1.62,1.78,2.58a2.51,2.51,0,0,1-3.12,1.94,4,4,0,0,1-1.89-.79l.52-1a3.11,3.11,0,0,0,1.57.71,1.18,1.18,0,0,0,1.5-.89c.1-.67-.33-1-1.32-1.59-1.31-.73-1.92-1.53-1.74-2.73.21-1.4,1.45-2.23,3.35-1.95a4.74,4.74,0,0,1,2.17.88Z"/><path class="cls-1" d="M480.39,483.34l2-3.18,1.46.35L477.5,490.6l-1.71-.41-1.15-11.85,1.51.36.36,3.73Zm-3.85.26.33,3.41c.07.77.09,1.46.1,2.14h0c.32-.61.65-1.23,1-1.85l1.82-2.92Z"/><path class="cls-1" d="M471.66,483.59c-.25.81-.44,1.47-.58,2.12l-1.25-.38.32-1.31h0a3,3,0,0,1-3,.67c-1.08-.33-2.54-1.49-1.72-4.14l1.42-4.62,1.41.43-1.38,4.46c-.38,1.25-.24,2.43,1.09,2.84a2.1,2.1,0,0,0,2.33-.85,2.31,2.31,0,0,0,.3-.63l1.44-4.66,1.4.44Z"/><path class="cls-1" d="M459.49,484.26l.8-2.17-2-.72.38-1.05,2,.72,1.5-4.08c.35-.93.27-1.56-.49-1.84a2.74,2.74,0,0,0-.83-.2l.31-1.06a3.82,3.82,0,0,1,1.3.26,2.06,2.06,0,0,1,1.27,1.13,3,3,0,0,1-.2,2.16L462,481.54l1.17.43-.38,1-1.17-.44L461,484.4Z"/><path class="cls-1" d="M454.2,482.15a.86.86,0,0,1,1.2-.49.88.88,0,0,1,.48,1.17.9.9,0,0,1-1.2.51A.87.87,0,0,1,454.2,482.15Zm5.42-9-3.06,7.47-1.35-.55,3.05-7.48Z"/><path class="cls-1" d="M446.32,476.15c.28-.52.58-1.1,1-2l2-4.26c.79-1.69,1.6-2.56,2.61-2.87a4.25,4.25,0,0,1,3.07.36,5.13,5.13,0,0,1,2.17,1.74l-.81.86a4.54,4.54,0,0,0-1.88-1.57c-1.37-.64-2.71-.39-3.56,1.46l-.38.82h0a2.9,2.9,0,0,1,2.91-.14c1.82.84,2.4,3,1.46,5-1.15,2.49-3.43,3.14-5.12,2.36a2.7,2.7,0,0,1-1.7-2.33l0,0-.58,1.08Zm2.73-2.26a2,2,0,0,0-.21.64,2.13,2.13,0,0,0,1.21,2.28c1.27.59,2.68-.06,3.47-1.76.68-1.44.5-3-.94-3.65a2.14,2.14,0,0,0-2.48.51,2.31,2.31,0,0,0-.44.66Z"/><path class="cls-1" d="M440.84,466.49c.4-.73.74-1.38,1-2l1.14.63-.56,1.19,0,0a3,3,0,0,1,3.07,0c1.11.61,2.1,2,.73,4.44L444,474.92l-1.29-.71,2.15-3.91c.74-1.35.83-2.48-.34-3.13a2.14,2.14,0,0,0-2.34.24,2.17,2.17,0,0,0-.48.59l-2.38,4.35-1.29-.71Z"/><path class="cls-1" d="M437.22,466.18a2.59,2.59,0,0,0-.85-3.86,5.3,5.3,0,0,0-2.12-.85l.35-1a6.35,6.35,0,0,1,2.55,1,3.78,3.78,0,0,1,1.19,5.59c-1.31,2.07-3.56,2.93-5.56,1.66-2.23-1.41-1.58-3.76-.79-5,.17-.25.32-.43.41-.55ZM433,464.77a2.08,2.08,0,0,0,.45,3.11,2.44,2.44,0,0,0,3.19-.81Z"/><path class="cls-1" d="M420.39,464.49l5.72-7.92c.42-.58.89-1.25,1.17-1.73l1.07.78-.77,1.17,0,0a3,3,0,0,1,3.17.33c1.58,1.14,1.83,3.36.39,5.35-1.56,2.19-3.88,2.55-5.47,1.4a2.73,2.73,0,0,1-1.26-2.43l0,0-2.83,3.91Zm5.33-4.86a2.82,2.82,0,0,0-.31.53,2.18,2.18,0,0,0,.72,2.63c1.23.89,2.74.33,3.79-1.11s1.1-2.9-.19-3.82A2.21,2.21,0,0,0,427,458a2.45,2.45,0,0,0-.42.48Z"/><path class="cls-1" d="M422.09,450.64l-.56.86,0,0a3,3,0,0,1,2.67.64,2.3,2.3,0,0,1,.43,3.36c-1.24,1.51-3.25,1.23-5.65-.77l-.11.13a1.67,1.67,0,0,0,.23,2.61,3.92,3.92,0,0,0,2,.87l-.36,1a5,5,0,0,1-2.51-1.13c-1.91-1.57-1.3-3.25-.27-4.5l1.92-2.33a10.59,10.59,0,0,0,1.12-1.58ZM419.64,454c1.21,1,2.8,2,3.79.76a1.29,1.29,0,0,0-.18-2,2,2,0,0,0-2.36-.19,1.51,1.51,0,0,0-.36.3Z"/><path class="cls-1" d="M406.33,452.41l6.63-7.16c.48-.53,1-1.14,1.37-1.58l1,.9-.9,1.07,0,0a3,3,0,0,1,3.1.71c1.43,1.33,1.41,3.56-.25,5.36-1.82,2-4.16,2.06-5.61.73a2.7,2.7,0,0,1-.94-2.57l0,0-3.27,3.54Zm5.87-4.18a2.7,2.7,0,0,0-.37.5,2.17,2.17,0,0,0,.4,2.69c1.11,1,2.68.66,3.89-.65s1.44-2.74.28-3.81a2.2,2.2,0,0,0-2.77-.18,2.63,2.63,0,0,0-.48.42Z"/><path class="cls-1" d="M409.43,444.08a2.6,2.6,0,0,0,.13-4,5.43,5.43,0,0,0-1.84-1.34l.59-.91a6.62,6.62,0,0,1,2.21,1.62,3.75,3.75,0,0,1-.22,5.7c-1.77,1.68-4.16,2-5.78.25-1.82-1.93-.62-4,.47-5.06a4.43,4.43,0,0,1,.53-.44Zm-3.74-2.41a2.1,2.1,0,0,0-.33,3.13,2.44,2.44,0,0,0,3.29,0Z"/><path class="cls-1" d="M406.16,437.22a3.8,3.8,0,0,0-.82-1.85c-.69-.81-1.42-.85-1.93-.41s-.55,1-.16,2.11c.56,1.44.4,2.48-.34,3.11a2.49,2.49,0,0,1-3.62-.57,4,4,0,0,1-.91-1.84l1.05-.42a3.1,3.1,0,0,0,.72,1.56,1.18,1.18,0,0,0,1.72.32c.51-.44.42-1,0-2.06-.51-1.42-.45-2.42.47-3.2,1.08-.93,2.56-.74,3.81.72a4.61,4.61,0,0,1,1.07,2.08Z"/><path class="cls-1" d="M384,400.7a7.31,7.31,0,0,1,1.76,2.45c1.38,2.87.6,5.89-2.73,7.49a5.61,5.61,0,0,1-7.88-2.76,6.07,6.07,0,0,1-.71-2.63l1.23-.19a5.1,5.1,0,0,0,.56,2.25c1.14,2.38,3.42,3.24,6.09,2,2.48-1.19,3.4-3.39,2.21-5.86a5.83,5.83,0,0,0-1.45-1.94Z"/><path class="cls-1" d="M377.21,394a4,4,0,0,1,5.48,2.15,3.84,3.84,0,0,1-2.42,5.15,4,4,0,0,1-5.48-2.13A3.83,3.83,0,0,1,377.21,394Zm2.46,5.93c1.64-.65,2.51-2.1,2-3.44s-2.14-1.79-3.84-1.11c-1.28.51-2.63,1.79-2,3.41S378.24,400.47,379.67,399.89Z"/><path class="cls-1" d="M374.76,392.73c-.8.24-1.45.46-2.08.71l-.38-1.24,1.23-.44v-.05a2.81,2.81,0,0,1-2.18-2,2.38,2.38,0,0,1,.88-2.67v0a3.19,3.19,0,0,1-1.28-.55,2.79,2.79,0,0,1-1.07-1.54c-.32-1-.11-2.75,2.57-3.58l4.56-1.41.43,1.38L373,382.66c-1.49.46-2.22,1.28-1.87,2.41a1.89,1.89,0,0,0,1.79,1.27,2.19,2.19,0,0,0,.74-.1l4.78-1.48.43,1.38-4.64,1.43c-1.23.38-2,1.2-1.63,2.27a2,2,0,0,0,1.95,1.31,1.82,1.82,0,0,0,.72-.1l4.67-1.44.42,1.38Z"/><path class="cls-1" d="M371.16,378.9c-1,.22-1.83.43-2.57.63l-.29-1.3,1.35-.36v0a3.2,3.2,0,0,1-2.15-2.48c-.41-1.91.89-3.71,3.29-4.23,2.85-.62,4.64.81,5,2.67a2.84,2.84,0,0,1-.71,2.71v0l4.3-.93.31,1.42ZM373,377a2.93,2.93,0,0,0,.57-.19,2.26,2.26,0,0,0,1.21-2.53c-.32-1.52-1.76-2.13-3.57-1.73-1.59.34-2.77,1.47-2.44,3a2.36,2.36,0,0,0,2.26,1.79,2.52,2.52,0,0,0,.61,0Z"/><path class="cls-1" d="M369.1,369.46c-.94.15-1.74.3-2.47.48l-.21-1.27,1.55-.31v-.07a2.41,2.41,0,0,1-2.11-1.91,1.53,1.53,0,0,1,0-.42l1.36-.23a2.24,2.24,0,0,0,0,.5,2.06,2.06,0,0,0,2.18,1.64,4.11,4.11,0,0,0,.68-.05l4.25-.71.24,1.43Z"/><path class="cls-1" d="M373.22,358.88l-1,.23v.05a3,3,0,0,1,1.48,2.32,2.3,2.3,0,0,1-2,2.73c-1.95.23-3.22-1.38-3.56-4.49l-.16,0a1.67,1.67,0,0,0-1.66,2,4.07,4.07,0,0,0,.84,2l-.92.44a5,5,0,0,1-1-2.56c-.28-2.46,1.33-3.25,2.95-3.44l3-.35a11.67,11.67,0,0,0,1.91-.35Zm-4.08.69c.15,1.6.64,3.38,2.21,3.2a1.31,1.31,0,0,0,1.24-1.54,2,2,0,0,0-1.58-1.79,1.5,1.5,0,0,0-.47,0Z"/><path class="cls-1" d="M366.89,355.72c-.84,0-1.52.07-2.19.15l-.05-1.29,1.3-.11v-.05a2.82,2.82,0,0,1-1.59-2.49,2.39,2.39,0,0,1,1.54-2.35v0a3.39,3.39,0,0,1-1.08-.86,2.75,2.75,0,0,1-.64-1.77c0-1.07.6-2.68,3.42-2.79l4.76-.18.06,1.44-4.59.17c-1.56.06-2.47.66-2.42,1.85a1.89,1.89,0,0,0,1.4,1.69,2.46,2.46,0,0,0,.74.09l5-.19.06,1.44-4.85.18c-1.29.05-2.21.66-2.17,1.78a2,2,0,0,0,1.55,1.76,1.9,1.9,0,0,0,.72.09l4.89-.18.05,1.43Z"/><path class="cls-1" d="M368.59,334.43a4,4,0,0,1,4.15,4.2,3.85,3.85,0,0,1-4.31,3.72,4,4,0,0,1-4.15-4.18A3.84,3.84,0,0,1,368.59,334.43Zm-.16,6.43c1.78.07,3.15-.9,3.21-2.34s-1.23-2.51-3.05-2.58c-1.37-.05-3.14.57-3.2,2.31S366.9,340.8,368.43,340.86Z"/><path class="cls-1" d="M371.36,333a3.77,3.77,0,0,0,.77-1.87c.1-1.06-.39-1.61-1.05-1.68s-1.13.32-1.62,1.36c-.65,1.4-1.52,2-2.48,1.92a2.49,2.49,0,0,1-2.1-3,4,4,0,0,1,.68-1.93l1,.46a3.17,3.17,0,0,0-.62,1.61,1.19,1.19,0,0,0,1,1.45c.67.06,1-.4,1.51-1.41.66-1.34,1.43-2,2.63-1.88,1.41.13,2.3,1.32,2.13,3.23a4.82,4.82,0,0,1-.76,2.22Z"/><path class="cls-1" d="M370.86,320.46l3.28,1.79-.27,1.48-10.4-5.8.31-1.72,11.79-1.75-.28,1.53-3.71.54Zm-.45-3.84-3.39.5c-.77.12-1.46.16-2.13.21v0c.63.28,1.27.59,1.91.93l3,1.67Z"/><path class="cls-1" d="M370.17,311.68c-.81-.2-1.47-.36-2.13-.47l.32-1.26,1.31.24v0a3,3,0,0,1-.81-3c.27-1.08,1.35-2.6,4-1.92l4.68,1.19-.37,1.42-4.51-1.14c-1.26-.33-2.43-.12-2.77,1.22a2.07,2.07,0,0,0,1,2.28,2,2,0,0,0,.63.26l4.71,1.2-.36,1.42Z"/><path class="cls-1" d="M368.8,299.51l2.22.69.62-2,1.07.33-.62,2,4.17,1.29c1,.29,1.59.19,1.83-.6a3.13,3.13,0,0,0,.16-.84l1.07.26a3.52,3.52,0,0,1-.19,1.31,2,2,0,0,1-1.06,1.33,2.91,2.91,0,0,1-2.18-.08l-4.23-1.3-.37,1.2-1.07-.33.37-1.2-1.85-.57Z"/><path class="cls-1" d="M370.66,294.1a.91.91,0,0,1-.59,1.72.89.89,0,0,1-.57-1.17A.87.87,0,0,1,370.66,294.1Zm9.27,4.95-7.65-2.66.48-1.39,7.65,2.66Z"/><path class="cls-1" d="M376.2,286.1c.53.25,1.12.52,2,.89l4.36,1.74c1.73.69,2.65,1.46,3,2.45a4.31,4.31,0,0,1-.2,3.1,5.14,5.14,0,0,1-1.62,2.25l-.9-.76a4.53,4.53,0,0,0,1.47-2c.56-1.4.24-2.71-1.65-3.48l-.84-.33,0,0a2.91,2.91,0,0,1,.31,2.9c-.75,1.86-2.87,2.56-5,1.73-2.55-1-3.33-3.26-2.64-5a2.69,2.69,0,0,1,2.25-1.83v0l-1.11-.52Zm2.4,2.6a2.08,2.08,0,0,0-.66-.17,2.13,2.13,0,0,0-2.21,1.33c-.52,1.31.21,2.68,1.95,3.38,1.48.59,3,.33,3.6-1.14a2.17,2.17,0,0,0-.64-2.46,2.53,2.53,0,0,0-.69-.4Z"/><path class="cls-1" d="M385.54,280.06c.75.36,1.42.66,2,.89l-.56,1.18-1.23-.5v0a3.05,3.05,0,0,1,.2,3.06c-.55,1.15-1.84,2.22-4.4,1l-4.27-2,.64-1.33,4,1.94c1.38.66,2.52.69,3.1-.52a2.15,2.15,0,0,0-.37-2.33,2,2,0,0,0-.62-.44l-4.48-2.15.64-1.33Z"/><path class="cls-1" d="M385.69,276.44a2.6,2.6,0,0,0,3.81-1.06,5.41,5.41,0,0,0,.72-2.16l1,.29a6.34,6.34,0,0,1-.87,2.6,3.76,3.76,0,0,1-5.5,1.5c-2.14-1.19-3.12-3.39-2-5.45,1.28-2.31,3.66-1.79,5-1.07a5.49,5.49,0,0,1,.57.38Zm1.17-4.28a2.09,2.09,0,0,0-3.08.62,2.45,2.45,0,0,0,1,3.14Z"/><path class="cls-1" d="M386.47,259.49l8.24,5.29c.6.39,1.3.82,1.79,1.08l-.71,1.11-1.22-.7,0,0a3,3,0,0,1-.16,3.18c-1.06,1.64-3.26,2-5.33.69-2.28-1.45-2.76-3.75-1.7-5.41a2.73,2.73,0,0,1,2.36-1.39l0,0-4.06-2.61Zm5.16,5.07a2.85,2.85,0,0,0-.55-.28,2.17,2.17,0,0,0-2.59.86c-.82,1.28-.19,2.77,1.32,3.74s2.95.94,3.81-.4a2.2,2.2,0,0,0-.31-2.76,2.25,2.25,0,0,0-.5-.4Z"/><path class="cls-1" d="M400.42,260.47l-.88-.51,0,.05a3,3,0,0,1-.49,2.69,2.29,2.29,0,0,1-3.32.62c-1.58-1.16-1.41-3.18.45-5.69l-.13-.1a1.67,1.67,0,0,0-2.59.38,3.94,3.94,0,0,0-.76,2l-1-.31a5.08,5.08,0,0,1,1-2.56c1.46-2,3.17-1.47,4.48-.52l2.43,1.79a12.79,12.79,0,0,0,1.63,1ZM397,258.21c-1,1.27-1.82,2.9-.56,3.83a1.3,1.3,0,0,0,1.95-.29,2,2,0,0,0,.06-2.37,1.3,1.3,0,0,0-.32-.34Z"/><path class="cls-1" d="M397.88,244.82l7.49,6.25c.55.46,1.18,1,1.64,1.29l-.84,1-1.13-.85v0a3,3,0,0,1-.55,3.12c-1.25,1.5-3.48,1.59-5.37,0-2.07-1.71-2.26-4-1-5.55a2.69,2.69,0,0,1,2.51-1.08l0,0-3.7-3.09Zm4.47,5.65a2.56,2.56,0,0,0-.51-.35,2.18,2.18,0,0,0-2.67.53c-1,1.17-.52,2.72.84,3.86s2.81,1.3,3.82.08a2.18,2.18,0,0,0,0-2.77,2.33,2.33,0,0,0-.44-.45Z"/><path class="cls-1" d="M406.34,247.49a2.6,2.6,0,0,0,4-.08,5.63,5.63,0,0,0,1.24-1.92l.94.54a6.64,6.64,0,0,1-1.49,2.3,3.76,3.76,0,0,1-5.71.09c-1.78-1.68-2.19-4-.56-5.77,1.82-1.92,4-.83,5.08.2a5.48,5.48,0,0,1,.46.51Zm2.2-3.86a2.09,2.09,0,0,0-3.14-.17,2.44,2.44,0,0,0,.18,3.29Z"/><path class="cls-1" d="M413.17,243.71a4,4,0,0,0,1.82-.92c.78-.73.77-1.47.31-1.95s-1.05-.51-2.12-.05c-1.41.63-2.47.51-3.13-.19a2.5,2.5,0,0,1,.39-3.65,4,4,0,0,1,1.79-1l.47,1a3.13,3.13,0,0,0-1.53.8,1.18,1.18,0,0,0-.22,1.73c.46.49,1,.37,2.07-.06,1.38-.58,2.39-.56,3.22.31,1,1,.87,2.52-.53,3.85a4.67,4.67,0,0,1-2,1.16Z"/></svg>