<svg id="Capa_1" data-name="Capa 1" xmlns="http://www.w3.org/2000/svg" viewBox="0 0 1172.57 665.14"><defs><style>.cls-1{fill:#436064;}</style></defs><title>sello</title><path class="cls-1" d="M532.79,367q.45,33.13.91,66.27h14.07q0-29.34,0-58.68a30.58,30.58,0,0,1-15-7.59Z"/><path class="cls-1" d="M601.13,363.66a69.51,69.51,0,0,1-18.37,2.82,58.63,58.63,0,0,1-26.06-4.71,55.62,55.62,0,0,1-18.82-13.68,58,58,0,0,1-11.38-19.77A71.07,71.07,0,0,1,522.64,305a66.63,66.63,0,0,1,4-23.67,55.15,55.15,0,0,1,11.39-18.53,52.22,52.22,0,0,1,17.41-12.16,57.63,57.63,0,0,1,36.69-2.47A51.31,51.31,0,0,1,604,253.06a32.76,32.76,0,0,1,8.47,6.94,23.87,23.87,0,0,1,4.6,7.88H631a53.36,53.36,0,0,0-7.24-12,41.79,41.79,0,0,0-11-9.5,57.38,57.38,0,0,0-15.43-6.27,81,81,0,0,0-20.14-2.28,89.12,89.12,0,0,0-29.84,4.75,66.16,66.16,0,0,0-23,13.59,60.65,60.65,0,0,0-14.87,21.29,70.77,70.77,0,0,0-5.27,27.83,81,81,0,0,0,4.24,25.95,62.67,62.67,0,0,0,13.08,22.42,64.72,64.72,0,0,0,22.58,15.78c12.61,5.5,23.45,5.75,32.75,6a117,117,0,0,0,24.62-2Z"/><path class="cls-1" d="M628.22,348.66c-.75.83-1.57,1.68-2.47,2.55a49.48,49.48,0,0,1-3.87,3.34c.06,3.72.11,7.43.17,11.14q2.41-2.32,4.85-4.76,3.6-3.6,7-7.14Z"/><path class="cls-1" d="M607.86,296q-10.65-10.86-31.75-10.86-20.91,0-31.66,10.86c-8.05,8.12-9.28,20.24-10.75,31.55A91.38,91.38,0,0,0,533,337a92.46,92.46,0,0,0,14.92,16.83c-.06-5.38-.12-12.92-.11-22.23a65.15,65.15,0,0,1,1.31-14.16,29.16,29.16,0,0,1,4.52-11,20.91,20.91,0,0,1,8.74-7.13,33.19,33.19,0,0,1,13.77-2.52q8.24,0,13.66,2.52a21.71,21.71,0,0,1,8.75,7.13,28.33,28.33,0,0,1,4.62,11,70.35,70.35,0,0,1,1.31,14.16v33.68a97.53,97.53,0,0,1,.93,15.83,97.53,97.53,0,0,0-.93-15.83v68h14.07V327.39Q618.52,306.9,607.86,296Z"/><path class="cls-1" d="M528.13,205.89a7.26,7.26,0,0,1-2.6,1.58c-3,1.14-5.92.13-7.25-3.32a5.62,5.62,0,0,1,3.36-7.66,6.11,6.11,0,0,1,2.68-.49l.1,1.23a5.41,5.41,0,0,0-2.29.38c-2.47,1-3.5,3.17-2.43,5.94,1,2.58,3.11,3.66,5.68,2.67a5.87,5.87,0,0,0,2-1.29Z"/><path class="cls-1" d="M535.45,199.69a4,4,0,0,1-2.58,5.3,3.85,3.85,0,0,1-4.94-2.84,4,4,0,0,1,2.56-5.29A3.84,3.84,0,0,1,535.45,199.69Zm-6.11,2c.52,1.69,1.89,2.67,3.27,2.25s2-2,1.42-3.73c-.41-1.32-1.58-2.78-3.24-2.27S528.88,200.2,529.34,201.67Z"/><path class="cls-1" d="M537,197.36c-.18-.81-.35-1.47-.54-2.11l1.25-.28.35,1.25h.05a2.78,2.78,0,0,1,2.15-2,2.39,2.39,0,0,1,2.58,1.08h0a3.42,3.42,0,0,1,.65-1.23,2.78,2.78,0,0,1,1.62-.94c1-.24,2.74.1,3.35,2.83l1,4.64-1.39.31-1-4.45c-.34-1.52-1.09-2.3-2.25-2a1.9,1.9,0,0,0-1.4,1.68,2.41,2.41,0,0,0,0,.74l1.09,4.86-1.4.32-1.06-4.72c-.28-1.25-1-2-2.13-1.79a2,2,0,0,0-1.45,1.83,2,2,0,0,0,.05.72l1.06,4.75-1.4.32Z"/><path class="cls-1" d="M551,194.91c-.14-1-.29-1.85-.43-2.6l1.31-.18.26,1.36h0a3.17,3.17,0,0,1,2.63-2c1.94-.27,3.62,1.17,4,3.6.4,2.88-1.16,4.54-3,4.8A2.82,2.82,0,0,1,553,199h0l.6,4.35-1.44.2Zm1.74,1.94a4.11,4.11,0,0,0,.14.58,2.28,2.28,0,0,0,2.42,1.41c1.54-.22,2.26-1.6,2-3.43-.23-1.61-1.25-2.86-2.79-2.65a2.33,2.33,0,0,0-2,2.11,2.41,2.41,0,0,0,0,.6Z"/><path class="cls-1" d="M560.47,193.62c-.09-1-.17-1.76-.28-2.51l1.28-.1.18,1.57h.07a2.42,2.42,0,0,1,2.08-2,1.41,1.41,0,0,1,.42,0l.11,1.38a2,2,0,0,0-.5,0,2.06,2.06,0,0,0-1.81,2,3.17,3.17,0,0,0,0,.69l.35,4.29-1.45.12Z"/><path class="cls-1" d="M570.75,198.56l-.16-1h-.05a3,3,0,0,1-2.43,1.3,2.31,2.31,0,0,1-2.56-2.23c-.08-2,1.63-3.09,4.75-3.2v-.16a1.66,1.66,0,0,0-1.9-1.8,4,4,0,0,0-2.09.68l-.37-1a5,5,0,0,1,2.63-.82c2.48-.09,3.14,1.57,3.2,3.19l.12,3a12,12,0,0,0,.21,1.94Zm-.37-4.12c-1.61,0-3.43.38-3.36,1.95a1.3,1.3,0,0,0,1.44,1.35,2,2,0,0,0,1.9-1.43,1.91,1.91,0,0,0,.07-.47Z"/><path class="cls-1" d="M574.3,192.51c0-.83,0-1.52,0-2.19l1.28.05,0,1.31h0a2.81,2.81,0,0,1,2.6-1.39A2.38,2.38,0,0,1,580.5,192h0a3.33,3.33,0,0,1,.94-1,2.75,2.75,0,0,1,1.81-.5c1.07,0,2.63.81,2.53,3.61l-.18,4.77-1.44-.05.17-4.59c.06-1.55-.47-2.51-1.66-2.56a1.9,1.9,0,0,0-1.79,1.28,2.2,2.2,0,0,0-.14.73l-.2,5-1.44-.06.19-4.85c0-1.29-.49-2.24-1.6-2.29a2,2,0,0,0-1.89,1.41,2.3,2.3,0,0,0-.14.71l-.18,4.88-1.44-.05Z"/><path class="cls-1" d="M595.67,196a3.94,3.94,0,0,1-4.5,3.77,3.85,3.85,0,0,1-3.34-4.59,3.94,3.94,0,0,1,4.49-3.77A3.82,3.82,0,0,1,595.67,196Zm-6.36-.69c-.21,1.76.64,3.2,2.06,3.37s2.59-1,2.81-2.81c.16-1.36-.31-3.16-2-3.37S589.5,193.76,589.31,195.28Z"/><path class="cls-1" d="M596.85,198.83a3.87,3.87,0,0,0,1.8.91c1.05.19,1.64-.25,1.76-.91s-.22-1.14-1.22-1.73c-1.34-.76-1.87-1.67-1.7-2.63a2.48,2.48,0,0,1,3.16-1.84,4.07,4.07,0,0,1,1.87.84l-.55,1a3.1,3.1,0,0,0-1.55-.75c-.86-.15-1.42.25-1.52.85s.3,1,1.27,1.61c1.29.78,1.87,1.59,1.66,2.78-.25,1.4-1.51,2.19-3.4,1.85a4.55,4.55,0,0,1-2.14-.94Z"/><path class="cls-1" d="M609.17,199.28l-2,3.13-1.45-.38,6.59-9.92,1.71.45.82,11.89-1.5-.4-.26-3.74Zm3.87-.14-.23-3.43c-.06-.77,0-1.46,0-2.14h0c-.34.61-.69,1.22-1.07,1.83l-1.91,2.87Z"/><path class="cls-1" d="M618.09,199.35c.27-.78.48-1.44.65-2.09l1.23.42-.36,1.29,0,0a3,3,0,0,1,3-.58c1.06.36,2.48,1.55,1.59,4.18l-1.56,4.57-1.39-.48,1.5-4.41c.43-1.23.32-2.41-1-2.86a2.09,2.09,0,0,0-2.35.78,2.56,2.56,0,0,0-.31.62l-1.57,4.6-1.39-.47Z"/><path class="cls-1" d="M630.27,199l-.86,2.16,2,.78-.42,1-2-.78-1.63,4.05c-.37.93-.32,1.57.45,1.87a3.07,3.07,0,0,0,.82.23l-.34,1.05a3.73,3.73,0,0,1-1.29-.3,2,2,0,0,1-1.24-1.17,3,3,0,0,1,.25-2.16l1.64-4.11-1.16-.46.41-1,1.17.46.72-1.8Z"/><path class="cls-1" d="M629.8,210.09l3.27-7.39,1.35.59-3.28,7.39Zm5.69-8.8a.91.91,0,0,1-1.66-.74.9.9,0,0,1,1.21-.47A.88.88,0,0,1,635.49,201.29Z"/><path class="cls-1" d="M643.13,207.55c-.29.5-.61,1.07-1,1.95L640,213.69c-.83,1.65-1.67,2.5-2.68,2.77a4.29,4.29,0,0,1-3.06-.46,5.22,5.22,0,0,1-2.1-1.8l.83-.83a4.58,4.58,0,0,0,1.83,1.63c1.34.67,2.68.47,3.59-1.35l.41-.8,0,0a2.86,2.86,0,0,1-2.9,0c-1.79-.89-2.31-3.06-1.3-5.06,1.23-2.44,3.52-3,5.17-2.19a2.68,2.68,0,0,1,1.62,2.38l0,0L642,207Zm-2.78,2.16a2.07,2.07,0,0,0,.22-.63,2.11,2.11,0,0,0-1.13-2.31c-1.25-.63-2.68,0-3.52,1.65-.71,1.41-.59,3,.83,3.66a2.14,2.14,0,0,0,2.49-.42,2.85,2.85,0,0,0,.46-.65Z"/><path class="cls-1" d="M648.37,217.27c-.42.72-.78,1.36-1,1.94l-1.13-.66.59-1.18,0,0a3.07,3.07,0,0,1-3.08,0c-1.09-.64-2-2-.62-4.47l2.38-4.09,1.27.75-2.25,3.87c-.78,1.32-.9,2.46.26,3.13a2.06,2.06,0,0,0,2.84-.76l2.5-4.29,1.27.74Z"/><path class="cls-1" d="M651.94,217.71a2.59,2.59,0,0,0,.73,3.88,5.47,5.47,0,0,0,2.1.91l-.38,1a6.36,6.36,0,0,1-2.51-1.08,3.76,3.76,0,0,1-1-5.61c1.37-2,3.63-2.82,5.59-1.51,2.2,1.47,1.49,3.8.65,5a3.94,3.94,0,0,1-.42.54Zm4.17,1.53a2.09,2.09,0,0,0-.36-3.12,2.44,2.44,0,0,0-3.21.73Z"/><path class="cls-1" d="M668.71,219.87l-5.94,7.75c-.43.57-.92,1.23-1.22,1.7l-1-.8.8-1.15,0,0a3,3,0,0,1-3.15-.42c-1.55-1.19-1.74-3.41-.24-5.36,1.62-2.14,3.94-2.44,5.51-1.24a2.7,2.7,0,0,1,1.18,2.46l0,0,2.93-3.83Zm-5.46,4.71a2.34,2.34,0,0,0,.32-.53,2.15,2.15,0,0,0-.65-2.64c-1.2-.92-2.73-.41-3.82,1s-1.17,2.86.08,3.82a2.22,2.22,0,0,0,2.78-.08,2.76,2.76,0,0,0,.44-.46Z"/><path class="cls-1" d="M666.78,233.81l.59-.85,0,0a3,3,0,0,1-2.66-.72,2.3,2.3,0,0,1-.34-3.37c1.28-1.48,3.3-1.15,5.64.92l.11-.13a1.67,1.67,0,0,0-.16-2.62,4.06,4.06,0,0,0-2-.93l.38-1a5.1,5.1,0,0,1,2.48,1.2c1.87,1.63,1.21,3.3.15,4.52l-2,2.28a10.93,10.93,0,0,0-1.16,1.55Zm2.55-3.26c-1.19-1.08-2.75-2.06-3.78-.88a1.31,1.31,0,0,0,.12,2,2,2,0,0,0,2.37.26,1.86,1.86,0,0,0,.37-.3Z"/><path class="cls-1" d="M682.57,232.53l-6.84,6.95c-.51.51-1.07,1.1-1.42,1.53l-.93-.93.93-1,0,0a3,3,0,0,1-3.07-.81c-1.4-1.36-1.31-3.6.41-5.34,1.87-1.93,4.22-1.93,5.62-.55a2.68,2.68,0,0,1,.87,2.59l0,0,3.38-3.43Zm-6,4A2.51,2.51,0,0,0,677,236a2.15,2.15,0,0,0-.32-2.7c-1.07-1.07-2.65-.75-3.9.52s-1.53,2.69-.4,3.8a2.21,2.21,0,0,0,2.76.27,2.65,2.65,0,0,0,.5-.41Z"/><path class="cls-1" d="M679.21,240.74a2.59,2.59,0,0,0-.24,3.94,5.25,5.25,0,0,0,1.8,1.38l-.61.89a6.55,6.55,0,0,1-2.17-1.67,3.75,3.75,0,0,1,.38-5.68c1.81-1.62,4.2-1.84,5.77-.08,1.76,2,.51,4-.6,5a3.68,3.68,0,0,1-.54.42Zm3.66,2.5a2.09,2.09,0,0,0,.41-3.11,2.42,2.42,0,0,0-3.28-.08Z"/><path class="cls-1" d="M682.3,247.69a3.88,3.88,0,0,0,.76,1.88c.67.83,1.41.88,1.93.46s.58-1,.2-2.11c-.51-1.45-.32-2.49.43-3.1a2.51,2.51,0,0,1,3.61.68,4.09,4.09,0,0,1,.86,1.86l-1.07.39a3.08,3.08,0,0,0-.67-1.58,1.18,1.18,0,0,0-1.71-.36c-.52.42-.45,1-.1,2.05.47,1.43.38,2.43-.56,3.19-1.1.89-2.57.66-3.78-.83a4.61,4.61,0,0,1-1-2.11Z"/><path class="cls-1" d="M705.81,291.22a6.94,6.94,0,0,1-1.57-2.57c-1.15-2.95-.15-5.9,3.28-7.23a5.6,5.6,0,0,1,7.63,3.33,6.28,6.28,0,0,1,.5,2.67l-1.23.1a5.24,5.24,0,0,0-.39-2.28c-.95-2.45-3.16-3.48-5.9-2.41-2.57,1-3.64,3.11-2.65,5.66a5.77,5.77,0,0,0,1.29,2Z"/><path class="cls-1" d="M712,298.53a3.94,3.94,0,0,1-5.29-2.54,3.84,3.84,0,0,1,2.79-4.94,3.93,3.93,0,0,1,5.29,2.52A3.82,3.82,0,0,1,712,298.53Zm-2-6.08c-1.68.53-2.65,1.9-2.21,3.27s2,1.94,3.72,1.39c1.31-.41,2.76-1.58,2.24-3.24S711.5,292,710,292.45Z"/><path class="cls-1" d="M714.3,299.9c.82-.19,1.48-.35,2.12-.55l.28,1.26-1.25.35V301a2.76,2.76,0,0,1,2,2.14,2.38,2.38,0,0,1-1.07,2.59v0a3.15,3.15,0,0,1,1.22.65,2.74,2.74,0,0,1,.95,1.61c.23,1.05-.1,2.74-2.84,3.36l-4.63,1-.31-1.4,4.45-1c1.51-.34,2.3-1.1,2-2.25a1.88,1.88,0,0,0-1.68-1.4,2.38,2.38,0,0,0-.74,0l-4.86,1.1-.32-1.4,4.72-1.06c1.25-.28,2-1,1.79-2.13a2,2,0,0,0-1.83-1.45,2,2,0,0,0-.73,0l-4.75,1.07-.31-1.4Z"/><path class="cls-1" d="M716.8,313.88c1-.14,1.85-.29,2.61-.43l.18,1.31-1.37.25v0a3.19,3.19,0,0,1,1.95,2.63c.26,1.93-1.17,3.61-3.6,3.95-2.88.4-4.55-1.16-4.81-3a2.82,2.82,0,0,1,.92-2.64v0l-4.34.61-.2-1.44Zm-1.93,1.73a3.18,3.18,0,0,0-.59.15,2.28,2.28,0,0,0-1.4,2.42c.21,1.54,1.59,2.26,3.43,2,1.6-.22,2.86-1.25,2.65-2.79a2.35,2.35,0,0,0-2.11-1.95,3.09,3.09,0,0,0-.61,0Z"/><path class="cls-1" d="M718.15,323.55c.94-.08,1.76-.17,2.5-.29l.12,1.28-1.58.19v.07a2.41,2.41,0,0,1,2,2.08,1.46,1.46,0,0,1,0,.42l-1.38.12a2.81,2.81,0,0,0,0-.51,2.07,2.07,0,0,0-2.06-1.8,5.13,5.13,0,0,0-.68,0l-4.29.38-.13-1.45Z"/><path class="cls-1" d="M713.21,333.87l1-.16v0a3,3,0,0,1-1.3-2.43,2.3,2.3,0,0,1,2.23-2.56c2-.08,3.09,1.62,3.19,4.75h.17a1.66,1.66,0,0,0,1.8-1.91,4,4,0,0,0-.68-2.08l1-.37a5,5,0,0,1,.82,2.63c.09,2.47-1.57,3.14-3.2,3.2l-3,.12a11,11,0,0,0-1.94.21Zm4.12-.38c0-1.6-.38-3.42-2-3.36a1.31,1.31,0,0,0-1.35,1.45,2,2,0,0,0,1.42,1.9,1.64,1.64,0,0,0,.48.07Z"/><path class="cls-1" d="M719.26,337.42c.84,0,1.53.05,2.2,0l-.05,1.29-1.3,0v.05a2.79,2.79,0,0,1,1.39,2.59,2.38,2.38,0,0,1-1.71,2.23v0a3.45,3.45,0,0,1,1,.94,2.75,2.75,0,0,1,.5,1.81c0,1.07-.8,2.63-3.62,2.53l-4.76-.19.05-1.43,4.58.17c1.56.06,2.52-.47,2.57-1.66a1.9,1.9,0,0,0-1.28-1.79,2.84,2.84,0,0,0-.73-.15l-5-.19.06-1.44,4.85.19c1.28.05,2.24-.48,2.28-1.6a2,2,0,0,0-1.39-1.88,1.93,1.93,0,0,0-.72-.15l-4.88-.18.05-1.44Z"/><path class="cls-1" d="M715.88,358.62a4,4,0,0,1-3.79-4.52,3.85,3.85,0,0,1,4.61-3.36,4,4,0,0,1,3.79,4.51A3.84,3.84,0,0,1,715.88,358.62Zm.69-6.39c-1.77-.22-3.22.64-3.4,2.07s1,2.6,2.83,2.82c1.37.17,3.18-.31,3.39-2S718.09,352.41,716.57,352.23Z"/><path class="cls-1" d="M713,360a3.88,3.88,0,0,0-.92,1.8c-.18,1.06.26,1.64.92,1.76s1.14-.22,1.72-1.22c.77-1.34,1.68-1.87,2.63-1.7,1.29.22,2.15,1.45,1.85,3.16a4,4,0,0,1-.85,1.87l-1-.55a3.19,3.19,0,0,0,.75-1.55,1.18,1.18,0,0,0-.85-1.52c-.66-.12-1,.3-1.62,1.27-.77,1.29-1.59,1.87-2.77,1.66-1.4-.25-2.19-1.51-1.86-3.4a4.65,4.65,0,0,1,.94-2.14Z"/><path class="cls-1" d="M712.54,372.31l-3.12-2,.38-1.46,9.92,6.6-.45,1.7-11.89.82.4-1.5,3.74-.25Zm.15,3.87,3.43-.24c.77-.05,1.46,0,2.14,0v0c-.61-.33-1.22-.69-1.83-1.07l-2.87-1.91Z"/><path class="cls-1" d="M712.5,381.23c.79.27,1.45.47,2.1.64l-.43,1.23-1.29-.35v0a3,3,0,0,1,.58,3c-.36,1.06-1.56,2.49-4.18,1.6l-4.57-1.56.47-1.39,4.41,1.5c1.24.42,2.42.32,2.87-1a2.13,2.13,0,0,0-1.41-2.66l-4.59-1.58.47-1.38Z"/><path class="cls-1" d="M712.89,393.42l-2.16-.87-.78,2-1-.41.78-2-4.06-1.62c-.93-.38-1.56-.32-1.87.44a3.31,3.31,0,0,0-.22.83l-1-.35a3.51,3.51,0,0,1,.3-1.29,2,2,0,0,1,1.17-1.24,3,3,0,0,1,2.17.25l4.1,1.64.46-1.16,1,.41-.46,1.17,1.8.72Z"/><path class="cls-1" d="M701.79,393l7.38,3.27-.59,1.34-7.39-3.27Zm8.79,5.69a.91.91,0,0,1,.74-1.67.91.91,0,0,1,.47,1.22A.88.88,0,0,1,710.58,398.64Z"/><path class="cls-1" d="M704.51,406.1c-.51-.29-1.08-.61-2-1.05L698.33,403c-1.66-.82-2.52-1.65-2.8-2.67a4.23,4.23,0,0,1,.44-3.06,5.2,5.2,0,0,1,1.79-2.12l.84.83a4.54,4.54,0,0,0-1.62,1.84c-.66,1.35-.45,2.69,1.38,3.59l.8.4,0,0a2.89,2.89,0,0,1-.07-2.91c.89-1.79,3-2.33,5.06-1.34,2.46,1.22,3.06,3.51,2.24,5.17a2.67,2.67,0,0,1-2.38,1.64v0l1.06.61Zm-2.19-2.78a2.22,2.22,0,0,0,.64.22,2.12,2.12,0,0,0,2.31-1.15c.62-1.26,0-2.69-1.68-3.52-1.42-.7-3-.56-3.67.86a2.15,2.15,0,0,0,.44,2.49,2.7,2.7,0,0,0,.66.46Z"/><path class="cls-1" d="M694.61,411.53c-.72-.42-1.36-.78-1.94-1l.66-1.13,1.18.59,0,0a3,3,0,0,1,0-3.06c.64-1.1,2-2.06,4.47-.64l4.08,2.39-.73,1.27-3.87-2.26c-1.33-.77-2.46-.89-3.13.27a2.1,2.1,0,0,0,.17,2.34,2.23,2.23,0,0,0,.59.5l4.28,2.5-.73,1.27Z"/><path class="cls-1" d="M694.19,415.1a2.6,2.6,0,0,0-3.88.74,5.24,5.24,0,0,0-.9,2.09l-1-.37a6.61,6.61,0,0,1,1.08-2.52,3.76,3.76,0,0,1,5.61-1c2,1.36,2.83,3.63,1.51,5.59-1.47,2.19-3.8,1.48-5,.65a4.77,4.77,0,0,1-.54-.43Zm-1.53,4.17a2.09,2.09,0,0,0,3.12-.36,2.43,2.43,0,0,0-.73-3.21Z"/><path class="cls-1" d="M692,431.88l-7.75-5.94c-.57-.43-1.23-.92-1.7-1.21l.8-1.05,1.16.8,0,0a3,3,0,0,1,.41-3.15c1.19-1.55,3.41-1.74,5.37-.25,2.14,1.62,2.44,4,1.24,5.52a2.68,2.68,0,0,1-2.46,1.18l0,0,3.83,2.93Zm-4.71-5.46a2.87,2.87,0,0,0,.53.32,2.15,2.15,0,0,0,2.64-.65c.92-1.2.42-2.73-1-3.81s-2.86-1.18-3.82.08a2.19,2.19,0,0,0,.09,2.77,2.42,2.42,0,0,0,.46.44Z"/><path class="cls-1" d="M678.25,429.81l.84.58,0,0a3,3,0,0,1,.71-2.66,2.3,2.3,0,0,1,3.37-.34c1.48,1.29,1.15,3.3-.91,5.65l.12.1A1.67,1.67,0,0,0,685,433a4,4,0,0,0,.93-2l.95.39a5.07,5.07,0,0,1-1.2,2.47c-1.63,1.87-3.3,1.22-4.52.15l-2.28-2a11.06,11.06,0,0,0-1.55-1.17Zm3.26,2.54c1.07-1.19,2-2.75.87-3.78a1.3,1.3,0,0,0-2,.13,2,2,0,0,0-.27,2.36,1.57,1.57,0,0,0,.3.37Z"/><path class="cls-1" d="M679.61,445.65l-7-6.84c-.52-.5-1.11-1.06-1.55-1.42l.93-.94,1,.94,0,0a3,3,0,0,1,.78-3.09c1.37-1.4,3.61-1.32,5.37.4,1.95,1.87,2,4.23.58,5.64a2.71,2.71,0,0,1-2.59.89l0,0,3.46,3.38Zm-4-6a3.19,3.19,0,0,0,.5.39,2.16,2.16,0,0,0,2.7-.33c1.07-1.09.74-2.67-.54-3.92s-2.7-1.52-3.81-.39a2.23,2.23,0,0,0-.26,2.78,2.6,2.6,0,0,0,.41.49Z"/><path class="cls-1" d="M671.35,442.26a2.6,2.6,0,0,0-3.94-.24,5.56,5.56,0,0,0-1.39,1.81l-.89-.62a6.73,6.73,0,0,1,1.67-2.16,3.76,3.76,0,0,1,5.68.37c1.63,1.82,1.84,4.21.09,5.78-2,1.76-4,.5-5-.6a5.83,5.83,0,0,1-.42-.55Zm-2.51,3.66a2.09,2.09,0,0,0,3.11.42,2.43,2.43,0,0,0,.09-3.28Z"/><path class="cls-1" d="M664.25,445.5a3.85,3.85,0,0,0-1.87.76c-.83.68-.88,1.41-.46,1.93s1,.58,2.1.21c1.45-.51,2.49-.32,3.1.43.82,1,.68,2.5-.68,3.6a4.09,4.09,0,0,1-1.86.86l-.38-1.06a3.27,3.27,0,0,0,1.58-.68,1.17,1.17,0,0,0,.35-1.71c-.42-.52-1-.45-2-.09-1.43.46-2.43.37-3.18-.57-.9-1.1-.67-2.57.82-3.78a4.6,4.6,0,0,1,2.12-1Z"/><path class="cls-1" d="M624.11,467.85a7.15,7.15,0,0,1,2.55-1.65c2.93-1.23,5.92-.31,7.35,3.11a5.62,5.62,0,0,1-3.14,7.75,6,6,0,0,1-2.66.57l-.14-1.23a5.39,5.39,0,0,0,2.28-.45c2.44-1,3.41-3.27,2.26-6-1.07-2.55-3.23-3.57-5.76-2.51a5.9,5.9,0,0,0-2,1.36Z"/><path class="cls-1" d="M617,474.23a4,4,0,0,1,2.43-5.36,3.84,3.84,0,0,1,5,2.69,4,4,0,0,1-2.41,5.36A3.84,3.84,0,0,1,617,474.23Zm6-2.15c-.58-1.67-2-2.61-3.33-2.14s-1.9,2-1.31,3.76c.44,1.3,1.65,2.72,3.29,2.16S623.55,473.54,623.05,472.08Z"/><path class="cls-1" d="M615.57,476.62c.2.81.39,1.47.6,2.1l-1.24.32-.39-1.24h0a2.79,2.79,0,0,1-2.09,2.06,2.41,2.41,0,0,1-2.62-1h0a3.27,3.27,0,0,1-.61,1.24,2.76,2.76,0,0,1-1.59,1c-1,.26-2.75,0-3.44-2.75l-1.17-4.61,1.39-.35,1.13,4.43c.38,1.5,1.16,2.27,2.31,2a1.89,1.89,0,0,0,1.35-1.72,2.43,2.43,0,0,0-.06-.74l-1.24-4.84,1.39-.35,1.2,4.69c.31,1.24,1.1,2,2.18,1.73a2.2,2.2,0,0,0,1.34-2.59l-1.21-4.73,1.4-.35Z"/><path class="cls-1" d="M601.72,479.46c.17,1,.33,1.84.49,2.59l-1.3.21-.29-1.35h0a3.18,3.18,0,0,1-2.58,2c-1.92.33-3.64-1.06-4-3.48-.48-2.86,1-4.57,2.9-4.88a2.81,2.81,0,0,1,2.66.84h0l-.72-4.33,1.44-.24Zm-1.79-1.88a3.15,3.15,0,0,0-.17-.59,2.26,2.26,0,0,0-2.45-1.33c-1.53.26-2.21,1.66-1.91,3.48.27,1.6,1.34,2.82,2.86,2.57a2.35,2.35,0,0,0,1.89-2.16,1.78,1.78,0,0,0,0-.61Z"/><path class="cls-1" d="M592.08,481.08c.1.95.21,1.76.34,2.5l-1.28.14-.22-1.57h-.07a2.45,2.45,0,0,1-2,2,2,2,0,0,1-.43,0l-.15-1.38a2.17,2.17,0,0,0,.51,0,2.06,2.06,0,0,0,1.75-2.1,5.28,5.28,0,0,0,0-.69L590,475.7l1.45-.16Z"/><path class="cls-1" d="M581.72,476.41l.19,1H582a3,3,0,0,1,2.38-1.36A2.29,2.29,0,0,1,587,478.2c.13,1.95-1.52,3.13-4.64,3.32l0,.17a1.65,1.65,0,0,0,1.94,1.74,4.06,4.06,0,0,0,2.06-.74l.4.94a5,5,0,0,1-2.6.89c-2.46.17-3.17-1.47-3.28-3.09l-.2-3a10.37,10.37,0,0,0-.26-1.92Zm.49,4.1c1.6-.08,3.4-.48,3.29-2a1.3,1.3,0,0,0-1.47-1.31,2,2,0,0,0-1.86,1.48,1.51,1.51,0,0,0,0,.47Z"/><path class="cls-1" d="M578.3,482.58c0,.84,0,1.52,0,2.19l-1.28,0,0-1.3h0a2.77,2.77,0,0,1-2.56,1.44,2.39,2.39,0,0,1-2.27-1.65h0a3.28,3.28,0,0,1-.93,1,2.77,2.77,0,0,1-1.79.54c-1.07,0-2.65-.74-2.61-3.55l.08-4.77,1.44,0-.07,4.58c0,1.56.53,2.51,1.71,2.53a1.91,1.91,0,0,0,1.76-1.31,2.33,2.33,0,0,0,.13-.74l.08-5,1.44,0-.08,4.85c0,1.29.53,2.23,1.66,2.25a2,2,0,0,0,1.85-1.44,2.13,2.13,0,0,0,.12-.72l.08-4.89,1.44,0Z"/><path class="cls-1" d="M557,479.72a4,4,0,0,1,4.41-3.9,3.85,3.85,0,0,1,3.48,4.5,4,4,0,0,1-4.39,3.91A3.85,3.85,0,0,1,557,479.72Zm6.4.51c.17-1.76-.72-3.18-2.16-3.32s-2.56,1.09-2.73,2.9c-.13,1.37.39,3.16,2.12,3.32S563.26,481.76,563.4,480.23Z"/><path class="cls-1" d="M555.74,476.91a3.76,3.76,0,0,0-1.84-.86c-1.06-.16-1.63.29-1.73,1s.25,1.13,1.27,1.69c1.36.73,1.93,1.62,1.78,2.58a2.49,2.49,0,0,1-3.11,1.94,4,4,0,0,1-1.9-.79l.52-1a3.15,3.15,0,0,0,1.57.71c.87.13,1.42-.3,1.5-.89s-.33-1-1.31-1.58c-1.31-.74-1.92-1.54-1.75-2.73.22-1.41,1.46-2.24,3.36-1.95a4.62,4.62,0,0,1,2.17.88Z"/><path class="cls-1" d="M543.13,476.75l2-3.17,1.47.34L540.23,484l-1.7-.41-1.16-11.84,1.51.35.37,3.73Zm-3.86.26.33,3.41c.08.78.09,1.46.1,2.14h0c.31-.62.65-1.24,1-1.86l1.83-2.92Z"/><path class="cls-1" d="M534.4,477c-.26.8-.44,1.46-.59,2.11l-1.24-.38.31-1.31h0a3,3,0,0,1-3,.67c-1.07-.33-2.54-1.48-1.72-4.14l1.43-4.62,1.4.43-1.37,4.46c-.39,1.25-.24,2.43,1.08,2.84a2.08,2.08,0,0,0,2.33-.85,2,2,0,0,0,.3-.63l1.44-4.65,1.4.43Z"/><path class="cls-1" d="M522.22,477.68l.81-2.18-2-.72.39-1,2,.73,1.5-4.08c.35-.94.28-1.57-.49-1.85a2.93,2.93,0,0,0-.83-.2l.32-1.06a3.73,3.73,0,0,1,1.29.26,2,2,0,0,1,1.27,1.13,3,3,0,0,1-.19,2.17L524.76,475l1.17.43-.39,1.05-1.17-.43-.67,1.81Z"/><path class="cls-1" d="M516.93,475.56a.91.91,0,0,1,1.68.69.89.89,0,0,1-1.19.5A.88.88,0,0,1,516.93,475.56Zm5.42-9-3.05,7.48-1.36-.56L521,466Z"/><path class="cls-1" d="M509.06,469.56c.27-.52.58-1.09,1-2l2-4.26c.78-1.68,1.6-2.56,2.6-2.87a4.27,4.27,0,0,1,3.08.36,5.23,5.23,0,0,1,2.16,1.74l-.8.86a4.58,4.58,0,0,0-1.89-1.57c-1.37-.64-2.7-.39-3.55,1.46l-.38.82,0,0a2.87,2.87,0,0,1,2.91-.15c1.82.84,2.41,3,1.46,5-1.15,2.49-3.43,3.15-5.11,2.37a2.7,2.7,0,0,1-1.7-2.34l0,0-.58,1.08Zm2.72-2.26a2.58,2.58,0,0,0-.21.65,2.13,2.13,0,0,0,1.22,2.27c1.27.59,2.68-.06,3.47-1.76.67-1.44.49-3-.94-3.65a2.17,2.17,0,0,0-2.49.51,2.68,2.68,0,0,0-.44.67Z"/><path class="cls-1" d="M503.58,459.91c.39-.74.73-1.39,1-2l1.14.63-.56,1.2h0a3.07,3.07,0,0,1,3.07,0c1.11.61,2.1,2,.74,4.44l-2.28,4.14-1.29-.7,2.16-3.92c.73-1.35.83-2.48-.34-3.13a2.13,2.13,0,0,0-2.34.24,2.17,2.17,0,0,0-.48.59L502,465.76l-1.28-.71Z"/><path class="cls-1" d="M500,459.6a2.6,2.6,0,0,0-.84-3.87,5.39,5.39,0,0,0-2.13-.85l.36-1a6.61,6.61,0,0,1,2.55,1,3.77,3.77,0,0,1,1.18,5.59c-1.31,2.07-3.55,2.93-5.55,1.67-2.24-1.42-1.59-3.77-.79-5a5.18,5.18,0,0,1,.41-.55Zm-4.22-1.42a2.1,2.1,0,0,0,.45,3.11,2.45,2.45,0,0,0,3.2-.81Z"/><path class="cls-1" d="M483.13,457.9l5.72-7.91c.41-.59.88-1.26,1.16-1.73l1.07.77-.76,1.17,0,0a3,3,0,0,1,3.16.33c1.58,1.15,1.83,3.37.4,5.35-1.57,2.19-3.88,2.55-5.48,1.4a2.7,2.7,0,0,1-1.25-2.43l0,0-2.83,3.91Zm5.32-4.86a2.19,2.19,0,0,0-.3.54,2.14,2.14,0,0,0,.72,2.62c1.22.89,2.74.34,3.79-1.11s1.1-2.89-.19-3.82a2.2,2.2,0,0,0-2.77.16,2.46,2.46,0,0,0-.43.47Z"/><path class="cls-1" d="M484.82,444.05l-.55.86,0,0a3,3,0,0,1,2.68.64,2.3,2.3,0,0,1,.43,3.36c-1.24,1.51-3.26,1.23-5.66-.77l-.11.13a1.68,1.68,0,0,0,.24,2.62,4.06,4.06,0,0,0,2,.87l-.35,1a5,5,0,0,1-2.51-1.14c-1.91-1.57-1.3-3.25-.27-4.5l1.92-2.33a11.38,11.38,0,0,0,1.12-1.58Zm-2.45,3.32c1.22,1,2.8,2,3.8.77a1.31,1.31,0,0,0-.18-2,2,2,0,0,0-2.37-.19,1.52,1.52,0,0,0-.36.31Z"/><path class="cls-1" d="M469.06,445.83l6.63-7.17c.49-.53,1-1.14,1.37-1.58l1,.9-.9,1.07,0,0a3,3,0,0,1,3.09.7c1.44,1.33,1.42,3.56-.25,5.36-1.81,2-4.16,2.06-5.6.73a2.7,2.7,0,0,1-.95-2.56l0,0-3.28,3.54Zm5.87-4.19a3.08,3.08,0,0,0-.37.5,2.17,2.17,0,0,0,.4,2.69c1.12,1,2.69.66,3.9-.65s1.44-2.73.27-3.81a2.19,2.19,0,0,0-2.76-.18,2.1,2.1,0,0,0-.48.42Z"/><path class="cls-1" d="M472.17,437.49a2.6,2.6,0,0,0,.12-4,5.34,5.34,0,0,0-1.84-1.34l.59-.91a6.53,6.53,0,0,1,2.22,1.62,3.76,3.76,0,0,1-.22,5.7c-1.78,1.68-4.17,2-5.79.25-1.82-1.92-.61-4,.47-5.06a5,5,0,0,1,.53-.43Zm-3.74-2.41a2.1,2.1,0,0,0-.34,3.13,2.45,2.45,0,0,0,3.3,0Z"/><path class="cls-1" d="M468.9,430.64a3.88,3.88,0,0,0-.82-1.86c-.7-.81-1.43-.85-1.94-.41s-.55,1-.15,2.11c.55,1.44.39,2.49-.35,3.12A2.5,2.5,0,0,1,462,433a4,4,0,0,1-.91-1.84l1.05-.42a3.18,3.18,0,0,0,.72,1.57,1.18,1.18,0,0,0,1.72.31c.51-.44.42-1,0-2.06-.51-1.42-.44-2.42.48-3.2s2.55-.74,3.81.72a4.72,4.72,0,0,1,1.06,2.09Z"/><path class="cls-1" d="M446.72,394.11a7.13,7.13,0,0,1,1.77,2.46c1.37,2.86.59,5.88-2.74,7.48a5.61,5.61,0,0,1-7.88-2.75,5.92,5.92,0,0,1-.7-2.63l1.22-.2a5.32,5.32,0,0,0,.56,2.26c1.14,2.38,3.43,3.23,6.09,1.95,2.49-1.19,3.4-3.38,2.22-5.86a6,6,0,0,0-1.45-1.94Z"/><path class="cls-1" d="M439.94,387.37a4,4,0,0,1,5.49,2.15,3.85,3.85,0,0,1-2.43,5.15,4,4,0,0,1-5.48-2.13A3.83,3.83,0,0,1,439.94,387.37Zm2.46,5.94c1.65-.66,2.51-2.11,2-3.44s-2.14-1.8-3.84-1.12c-1.27.51-2.63,1.79-2,3.41S441,393.88,442.4,393.31Z"/><path class="cls-1" d="M437.49,386.14c-.8.25-1.45.46-2.08.71l-.38-1.23,1.23-.45v-.05a2.79,2.79,0,0,1-2.17-2,2.39,2.39,0,0,1,.87-2.67v0a3.44,3.44,0,0,1-1.27-.55,2.72,2.72,0,0,1-1.07-1.55c-.32-1-.12-2.75,2.57-3.58l4.56-1.41.42,1.38-4.38,1.35c-1.49.46-2.22,1.28-1.86,2.42a1.89,1.89,0,0,0,1.79,1.27,2.6,2.6,0,0,0,.74-.11l4.78-1.48.42,1.38L437,381c-1.24.38-2,1.2-1.64,2.27a2,2,0,0,0,1.95,1.31,1.8,1.8,0,0,0,.72-.1l4.67-1.44.43,1.38Z"/><path class="cls-1" d="M433.89,372.31c-1,.22-1.82.43-2.57.63l-.28-1.29,1.34-.37v0a3.18,3.18,0,0,1-2.15-2.48c-.42-1.91.89-3.7,3.29-4.23,2.85-.62,4.63.81,5,2.67a2.84,2.84,0,0,1-.72,2.71v0l4.3-.94.31,1.42Zm1.81-1.88a4.23,4.23,0,0,0,.57-.2,2.26,2.26,0,0,0,1.21-2.52c-.33-1.52-1.77-2.14-3.58-1.74-1.59.34-2.77,1.47-2.43,3a2.33,2.33,0,0,0,2.25,1.79,2.07,2.07,0,0,0,.61,0Z"/><path class="cls-1" d="M431.83,362.87c-.93.15-1.73.31-2.47.48l-.21-1.27,1.56-.31,0-.07a2.43,2.43,0,0,1-2.11-1.91,1.49,1.49,0,0,1,0-.42l1.36-.23a2.31,2.31,0,0,0,0,.51,2.06,2.06,0,0,0,2.18,1.63,4.31,4.31,0,0,0,.69,0l4.25-.71.24,1.43Z"/><path class="cls-1" d="M436,352.29l-1,.23v.05a3,3,0,0,1,1.48,2.33,2.29,2.29,0,0,1-2,2.72c-1.95.23-3.21-1.38-3.56-4.49l-.16,0a1.68,1.68,0,0,0-1.66,2,4,4,0,0,0,.85,2l-.93.45a5.07,5.07,0,0,1-1-2.57c-.28-2.46,1.33-3.25,2.94-3.44l3-.35a11.81,11.81,0,0,0,1.92-.35Zm-4.08.69c.15,1.6.64,3.38,2.2,3.2a1.3,1.3,0,0,0,1.24-1.54,2,2,0,0,0-1.57-1.79,1.3,1.3,0,0,0-.48,0Z"/><path class="cls-1" d="M429.62,349.13c-.83,0-1.52.07-2.18.15l-.06-1.29,1.31-.11v-.05a2.8,2.8,0,0,1-1.58-2.49,2.39,2.39,0,0,1,1.54-2.35v0a3.2,3.2,0,0,1-1.09-.86,2.81,2.81,0,0,1-.64-1.77c0-1.07.61-2.68,3.42-2.79l4.76-.18.06,1.44-4.59.17c-1.55.06-2.46.67-2.42,1.85a1.89,1.89,0,0,0,1.41,1.69,2.38,2.38,0,0,0,.74.09l5-.19.06,1.44-4.85.18c-1.29.05-2.2.66-2.16,1.78a2.2,2.2,0,0,0,2.27,1.85l4.88-.18.06,1.44Z"/><path class="cls-1" d="M431.33,327.85a4,4,0,0,1,4.14,4.19,3.84,3.84,0,0,1-4.31,3.72,4,4,0,0,1-4.14-4.18A3.82,3.82,0,0,1,431.33,327.85Zm-.16,6.42c1.77.07,3.14-.9,3.2-2.34s-1.22-2.51-3.05-2.58c-1.37-.05-3.14.57-3.2,2.31S429.63,334.21,431.17,334.27Z"/><path class="cls-1" d="M434.1,326.37a3.84,3.84,0,0,0,.76-1.88c.1-1.06-.38-1.61-1.05-1.67s-1.12.31-1.62,1.36c-.65,1.39-1.51,2-2.48,1.91-1.3-.12-2.26-1.27-2.1-3a4,4,0,0,1,.69-1.93l1,.47a3.09,3.09,0,0,0-.62,1.6,1.18,1.18,0,0,0,1,1.45c.66.06,1-.39,1.51-1.41.66-1.34,1.42-2,2.62-1.88,1.41.13,2.31,1.32,2.13,3.24a4.56,4.56,0,0,1-.76,2.21Z"/><path class="cls-1" d="M433.6,313.88l3.27,1.79-.27,1.47-10.4-5.79.32-1.73,11.78-1.75L438,309.4l-3.71.54Zm-.45-3.84-3.4.5c-.76.11-1.45.15-2.13.2v0c.63.29,1.27.59,1.9.93l3,1.67Z"/><path class="cls-1" d="M432.91,305.1c-.81-.21-1.48-.36-2.14-.48l.32-1.26,1.32.25v0a3,3,0,0,1-.81-3c.28-1.08,1.35-2.6,4-1.92l4.67,1.19-.36,1.43-4.51-1.15c-1.27-.32-2.44-.12-2.78,1.22a2.1,2.1,0,0,0,1,2.28,2.37,2.37,0,0,0,.64.27l4.71,1.19-.37,1.43Z"/><path class="cls-1" d="M431.53,292.92l2.22.69.62-2,1.07.33-.62,2,4.17,1.29c1,.29,1.6.19,1.84-.59a3.14,3.14,0,0,0,.15-.85l1.08.26a4,4,0,0,1-.19,1.31,2.09,2.09,0,0,1-1.07,1.34,3,3,0,0,1-2.18-.08l-4.22-1.3-.37,1.19-1.07-.33.37-1.2-1.86-.57Z"/><path class="cls-1" d="M433.4,287.51a.91.91,0,0,1-.6,1.72.9.9,0,0,1-.57-1.17A.88.88,0,0,1,433.4,287.51Zm9.26,4.95L435,289.81l.49-1.4,7.65,2.66Z"/><path class="cls-1" d="M438.93,279.51c.53.25,1.12.52,2,.89l4.37,1.75c1.72.69,2.64,1.45,3,2.44a4.31,4.31,0,0,1-.19,3.1,5.24,5.24,0,0,1-1.62,2.25l-.91-.76a4.62,4.62,0,0,0,1.48-2c.56-1.4.24-2.71-1.66-3.47l-.84-.34v0a2.89,2.89,0,0,1,.3,2.9c-.75,1.86-2.87,2.57-4.95,1.73-2.54-1-3.33-3.26-2.64-5a2.7,2.7,0,0,1,2.25-1.83v0l-1.11-.51Zm2.4,2.6a2.09,2.09,0,0,0-.65-.17,2.13,2.13,0,0,0-2.21,1.33c-.52,1.31.21,2.68,1.95,3.38,1.48.59,3,.34,3.59-1.14a2.14,2.14,0,0,0-.64-2.45,2.52,2.52,0,0,0-.68-.41Z"/><path class="cls-1" d="M448.27,273.47c.76.36,1.42.66,2,.89l-.56,1.18-1.23-.5,0,0a3,3,0,0,1,.21,3.07c-.55,1.14-1.85,2.21-4.41,1l-4.26-2,.63-1.33,4,1.94c1.39.66,2.53.69,3.11-.52a2.11,2.11,0,0,0-.38-2.32,2,2,0,0,0-.62-.45l-4.47-2.15.63-1.32Z"/><path class="cls-1" d="M448.42,269.85a2.59,2.59,0,0,0,3.81-1.06,5.25,5.25,0,0,0,.72-2.16l1.05.29a6.67,6.67,0,0,1-.87,2.6,3.77,3.77,0,0,1-5.51,1.5c-2.13-1.19-3.12-3.38-2-5.45,1.29-2.31,3.66-1.79,5-1.07a5.49,5.49,0,0,1,.57.38Zm1.18-4.28a2.09,2.09,0,0,0-3.08.62,2.43,2.43,0,0,0,1,3.14Z"/><path class="cls-1" d="M449.21,252.91l8.23,5.29c.61.38,1.31.81,1.8,1.07l-.71,1.11-1.23-.7v0a3,3,0,0,1-.16,3.18c-1.06,1.65-3.27,2-5.34.69-2.27-1.44-2.76-3.75-1.69-5.41a2.68,2.68,0,0,1,2.36-1.38l0,0-4.07-2.62Zm5.16,5.06a2.93,2.93,0,0,0-.56-.28,2.16,2.16,0,0,0-2.58.87c-.83,1.28-.19,2.76,1.31,3.73s3,.94,3.82-.39a2.23,2.23,0,0,0-.31-2.77,2.92,2.92,0,0,0-.5-.4Z"/><path class="cls-1" d="M463.16,253.88l-.89-.5,0,0a3,3,0,0,1-.49,2.69,2.3,2.3,0,0,1-3.33.62c-1.57-1.15-1.4-3.18.46-5.68l-.14-.1a1.66,1.66,0,0,0-2.59.37,4,4,0,0,0-.76,2.05l-1-.31a5.17,5.17,0,0,1,1-2.56c1.46-2,3.18-1.47,4.48-.52l2.44,1.79a11.21,11.21,0,0,0,1.63,1Zm-3.45-2.26c-1,1.27-1.82,2.9-.55,3.83a1.29,1.29,0,0,0,1.94-.29,2,2,0,0,0,.07-2.37,1.52,1.52,0,0,0-.33-.34Z"/><path class="cls-1" d="M460.61,238.23l7.49,6.26c.55.45,1.19,1,1.64,1.28l-.84,1-1.12-.85,0,0a3,3,0,0,1-.55,3.13c-1.25,1.49-3.48,1.59-5.36,0-2.07-1.71-2.27-4.05-1-5.56a2.72,2.72,0,0,1,2.51-1.08l0,0-3.69-3.09Zm4.48,5.65a2.63,2.63,0,0,0-.52-.35,2.15,2.15,0,0,0-2.66.54c-1,1.16-.53,2.71.84,3.85s2.81,1.3,3.82.09a2.21,2.21,0,0,0,0-2.78,2.32,2.32,0,0,0-.44-.45Z"/><path class="cls-1" d="M469.07,240.9a2.6,2.6,0,0,0,3.95-.08,5.33,5.33,0,0,0,1.24-1.92l.94.54a6.49,6.49,0,0,1-1.49,2.3,3.75,3.75,0,0,1-5.7.09c-1.78-1.68-2.19-4.05-.56-5.76,1.81-1.93,4-.84,5.07.19a4.22,4.22,0,0,1,.46.51Zm2.21-3.86a2.1,2.1,0,0,0-3.15-.16,2.44,2.44,0,0,0,.19,3.28Z"/><path class="cls-1" d="M475.91,237.12a4,4,0,0,0,1.81-.91c.78-.74.77-1.48.31-2s-1-.5-2.11-.05c-1.42.63-2.47.52-3.14-.19-.9-.95-.87-2.45.4-3.65a3.93,3.93,0,0,1,1.79-1l.47,1a3.13,3.13,0,0,0-1.53.8,1.17,1.17,0,0,0-.22,1.73c.46.49,1,.38,2.06-.06,1.39-.58,2.39-.56,3.22.31,1,1,.87,2.53-.53,3.85a4.59,4.59,0,0,1-2,1.17Z"/></svg>